<svg width="24" height="30" viewBox="0 0 24 30" fill="none" xmlns="http://www.w3.org/2000/svg">
<path d="M20.0455 15.9153C20.012 12.2817 23.0969 10.514 23.238 10.4317C21.4909 7.94808 18.7828 7.60874 17.8312 7.58169C15.5568 7.34832 13.3506 8.90861 12.192 8.90861C11.0103 8.90861 9.22612 7.60423 7.30322 7.64256C4.82876 7.67977 2.51388 9.07659 1.24428 11.2457C-1.37587 15.6684 0.578254 22.1677 3.08855 25.7426C4.34428 27.4935 5.81161 29.4483 7.7322 29.3796C9.61117 29.304 10.313 28.2116 12.5805 28.2116C14.8272 28.2116 15.4863 29.3796 17.445 29.3356C19.4616 29.304 20.7312 27.5769 21.943 25.8103C23.3941 23.8036 23.9769 21.8273 24 21.7258C23.9526 21.71 20.0837 20.2703 20.0455 15.9153Z" fill="white"/>
<path d="M16.3454 5.22997C17.356 3.99775 18.0474 2.32133 17.8555 0.620117C16.3928 0.68325 14.5635 1.60657 13.5102 2.81174C12.5782 3.87373 11.7457 5.61441 11.9607 7.25136C13.6038 7.37087 15.2908 6.44303 16.3454 5.22997Z" fill="white"/>
</svg>
