<svg width="564" height="563" viewBox="0 0 564 563" fill="none" xmlns="http://www.w3.org/2000/svg">
<g filter="url(#filter0_ddddii_2517_14943)">
<g clip-path="url(#clip0_2517_14943)">
<rect x="199" y="195" width="166" height="166" rx="35.5714" fill="black" shape-rendering="crispEdges"/>
<g filter="url(#filter1_f_2517_14943)">
<ellipse cx="282.001" cy="389.852" rx="101.181" ry="45.4524" fill="#1972F5"/>
</g>
<g filter="url(#filter2_f_2517_14943)">
<ellipse cx="282" cy="410.405" rx="48.219" ry="32.8048" fill="#1972F5"/>
</g>
<g style="mix-blend-mode:plus-lighter" filter="url(#filter3_f_2517_14943)">
<ellipse cx="277.259" cy="410.8" rx="52.9619" ry="32.4095" fill="#1972F5"/>
</g>
<g filter="url(#filter4_di_2517_14943)">
<path fill-rule="evenodd" clip-rule="evenodd" d="M278.818 248H285.182C288.696 248 291.545 250.686 291.545 254V259.046C291.545 260.563 293.169 261.528 294.502 260.802L299.272 258.206C302.315 256.549 306.207 257.532 307.965 260.402L311.146 265.598C312.904 268.468 311.861 272.137 308.817 273.794L304.318 276.243C302.926 277.001 302.926 278.999 304.318 279.757L308.817 282.206C311.861 283.863 312.904 287.532 311.146 290.402L307.965 295.598C306.207 298.468 302.315 299.451 299.272 297.794L294.502 295.198C293.169 294.472 291.545 295.437 291.545 296.954V302C291.545 305.314 288.696 308 285.182 308H278.818C275.304 308 272.454 305.314 272.454 302V296.954C272.454 295.437 270.831 294.472 269.498 295.198L264.728 297.794C261.685 299.451 257.793 298.468 256.035 295.598L252.854 290.402C251.096 287.532 252.139 283.863 255.183 282.206L259.682 279.757C261.074 278.999 261.074 277.001 259.682 276.243L255.183 273.794C252.139 272.137 251.096 268.468 252.854 265.598L256.035 260.402C257.793 257.532 261.685 256.549 264.728 258.206L269.498 260.802C270.831 261.528 272.454 260.563 272.454 259.046V254C272.454 250.686 275.304 248 278.818 248ZM282 289.25C288.213 289.25 293.25 284.213 293.25 278C293.25 271.787 288.213 266.75 282 266.75C275.787 266.75 270.75 271.787 270.75 278C270.75 284.213 275.787 289.25 282 289.25Z" fill="url(#paint0_linear_2517_14943)"/>
</g>
</g>
<rect x="199" y="195" width="166" height="166" rx="35.5714" stroke="url(#paint1_linear_2517_14943)" stroke-width="0.790476" shape-rendering="crispEdges"/>
</g>
<defs>
<filter id="filter0_ddddii_2517_14943" x="0.985718" y="0.147592" width="562.029" height="562.029" filterUnits="userSpaceOnUse" color-interpolation-filters="sRGB">
<feFlood flood-opacity="0" result="BackgroundImageFix"/>
<feColorMatrix in="SourceAlpha" type="matrix" values="0 0 0 0 0 0 0 0 0 0 0 0 0 0 0 0 0 0 127 0" result="hardAlpha"/>
<feOffset dy="3.1619"/>
<feGaussianBlur stdDeviation="98.8095"/>
<feComposite in2="hardAlpha" operator="out"/>
<feColorMatrix type="matrix" values="0 0 0 0 0.0980392 0 0 0 0 0.447059 0 0 0 0 0.960784 0 0 0 0.74 0"/>
<feBlend mode="normal" in2="BackgroundImageFix" result="effect1_dropShadow_2517_14943"/>
<feColorMatrix in="SourceAlpha" type="matrix" values="0 0 0 0 0 0 0 0 0 0 0 0 0 0 0 0 0 0 127 0" result="hardAlpha"/>
<feOffset dy="3.1619"/>
<feGaussianBlur stdDeviation="7.74667"/>
<feComposite in2="hardAlpha" operator="out"/>
<feColorMatrix type="matrix" values="0 0 0 0 0.0980392 0 0 0 0 0.447059 0 0 0 0 0.960784 0 0 0 0.25 0"/>
<feBlend mode="normal" in2="effect1_dropShadow_2517_14943" result="effect2_dropShadow_2517_14943"/>
<feColorMatrix in="SourceAlpha" type="matrix" values="0 0 0 0 0 0 0 0 0 0 0 0 0 0 0 0 0 0 127 0" result="hardAlpha"/>
<feOffset dy="3.1619"/>
<feGaussianBlur stdDeviation="12.2129"/>
<feComposite in2="hardAlpha" operator="out"/>
<feColorMatrix type="matrix" values="0 0 0 0 0.198014 0 0 0 0 0.278213 0 0 0 0 1 0 0 0 0.46 0"/>
<feBlend mode="normal" in2="effect2_dropShadow_2517_14943" result="effect3_dropShadow_2517_14943"/>
<feColorMatrix in="SourceAlpha" type="matrix" values="0 0 0 0 0 0 0 0 0 0 0 0 0 0 0 0 0 0 127 0" result="hardAlpha"/>
<feOffset dy="1.58095"/>
<feGaussianBlur stdDeviation="1.58095"/>
<feComposite in2="hardAlpha" operator="out"/>
<feColorMatrix type="matrix" values="0 0 0 0 0.0980392 0 0 0 0 0.447059 0 0 0 0 0.960784 0 0 0 0.25 0"/>
<feBlend mode="normal" in2="effect3_dropShadow_2517_14943" result="effect4_dropShadow_2517_14943"/>
<feBlend mode="normal" in="SourceGraphic" in2="effect4_dropShadow_2517_14943" result="shape"/>
<feColorMatrix in="SourceAlpha" type="matrix" values="0 0 0 0 0 0 0 0 0 0 0 0 0 0 0 0 0 0 127 0" result="hardAlpha"/>
<feOffset dy="-3.95238"/>
<feGaussianBlur stdDeviation="10.869"/>
<feComposite in2="hardAlpha" operator="arithmetic" k2="-1" k3="1"/>
<feColorMatrix type="matrix" values="0 0 0 0 0.0980392 0 0 0 0 0.447059 0 0 0 0 0.960784 0 0 0 0.55 0"/>
<feBlend mode="normal" in2="shape" result="effect5_innerShadow_2517_14943"/>
<feColorMatrix in="SourceAlpha" type="matrix" values="0 0 0 0 0 0 0 0 0 0 0 0 0 0 0 0 0 0 127 0" result="hardAlpha"/>
<feOffset dy="-3.95238"/>
<feGaussianBlur stdDeviation="1.97619"/>
<feComposite in2="hardAlpha" operator="arithmetic" k2="-1" k3="1"/>
<feColorMatrix type="matrix" values="0 0 0 0 0.0980392 0 0 0 0 0.447059 0 0 0 0 0.960784 0 0 0 0.25 0"/>
<feBlend mode="normal" in2="effect5_innerShadow_2517_14943" result="effect6_innerShadow_2517_14943"/>
</filter>
<filter id="filter1_f_2517_14943" x="62.2489" y="225.828" width="439.505" height="328.048" filterUnits="userSpaceOnUse" color-interpolation-filters="sRGB">
<feFlood flood-opacity="0" result="BackgroundImageFix"/>
<feBlend mode="normal" in="SourceGraphic" in2="BackgroundImageFix" result="shape"/>
<feGaussianBlur stdDeviation="59.2857" result="effect1_foregroundBlur_2517_14943"/>
</filter>
<filter id="filter2_f_2517_14943" x="194.257" y="338.076" width="175.486" height="144.657" filterUnits="userSpaceOnUse" color-interpolation-filters="sRGB">
<feFlood flood-opacity="0" result="BackgroundImageFix"/>
<feBlend mode="normal" in="SourceGraphic" in2="BackgroundImageFix" result="shape"/>
<feGaussianBlur stdDeviation="19.7619" result="effect1_foregroundBlur_2517_14943"/>
</filter>
<filter id="filter3_f_2517_14943" x="184.773" y="338.867" width="184.971" height="143.867" filterUnits="userSpaceOnUse" color-interpolation-filters="sRGB">
<feFlood flood-opacity="0" result="BackgroundImageFix"/>
<feBlend mode="normal" in="SourceGraphic" in2="BackgroundImageFix" result="shape"/>
<feGaussianBlur stdDeviation="19.7619" result="effect1_foregroundBlur_2517_14943"/>
</filter>
<filter id="filter4_di_2517_14943" x="217" y="216" width="130" height="130" filterUnits="userSpaceOnUse" color-interpolation-filters="sRGB">
<feFlood flood-opacity="0" result="BackgroundImageFix"/>
<feColorMatrix in="SourceAlpha" type="matrix" values="0 0 0 0 0 0 0 0 0 0 0 0 0 0 0 0 0 0 127 0" result="hardAlpha"/>
<feOffset dy="3"/>
<feGaussianBlur stdDeviation="10"/>
<feComposite in2="hardAlpha" operator="out"/>
<feColorMatrix type="matrix" values="0 0 0 0 0.0980392 0 0 0 0 0.447059 0 0 0 0 0.960784 0 0 0 0.5 0"/>
<feBlend mode="normal" in2="BackgroundImageFix" result="effect1_dropShadow_2517_14943"/>
<feBlend mode="normal" in="SourceGraphic" in2="effect1_dropShadow_2517_14943" result="shape"/>
<feColorMatrix in="SourceAlpha" type="matrix" values="0 0 0 0 0 0 0 0 0 0 0 0 0 0 0 0 0 0 127 0" result="hardAlpha"/>
<feOffset/>
<feGaussianBlur stdDeviation="5"/>
<feComposite in2="hardAlpha" operator="arithmetic" k2="-1" k3="1"/>
<feColorMatrix type="matrix" values="0 0 0 0 0.0980392 0 0 0 0 0.447059 0 0 0 0 0.960784 0 0 0 1 0"/>
<feBlend mode="normal" in2="shape" result="effect2_innerShadow_2517_14943"/>
</filter>
<linearGradient id="paint0_linear_2517_14943" x1="263.16" y1="253.034" x2="280.294" y2="305.612" gradientUnits="userSpaceOnUse">
<stop stop-color="#91BDFF"/>
<stop offset="0.16" stop-color="#3F8DFF"/>
<stop offset="1" stop-color="#1B64CE"/>
</linearGradient>
<linearGradient id="paint1_linear_2517_14943" x1="281.379" y1="170.608" x2="290.42" y2="360.599" gradientUnits="userSpaceOnUse">
<stop stop-color="#EDEDED" stop-opacity="0"/>
<stop offset="1" stop-color="#EDEDED"/>
</linearGradient>
<clipPath id="clip0_2517_14943">
<rect x="199" y="195" width="166" height="166" rx="35.5714" fill="white"/>
</clipPath>
</defs>
</svg>
