<svg width="270" height="88" viewBox="0 0 270 88" fill="none" xmlns="http://www.w3.org/2000/svg">
<rect x="0.5" width="269" height="88" rx="44" fill="url(#paint0_linear_2824_16213)"/>
<rect x="1" y="0.5" width="268" height="87" rx="43.5" stroke="white" stroke-opacity="0.1"/>
<rect x="4.5" y="4" width="80" height="80" rx="40" fill="#040E29"/>
<rect x="5" y="4.5" width="79" height="79" rx="39.5" stroke="white" stroke-opacity="0.1"/>
<path d="M57.812 44.3147C57.8594 42.512 57.5395 40.7186 56.8718 39.0434C56.2041 37.3683 55.2025 35.8465 53.928 34.5707C52.6522 33.2963 51.1305 32.2947 49.4553 31.627C47.7802 30.9593 45.9867 30.6394 44.184 30.6867C44.3592 32.6481 44.0511 34.6226 43.2867 36.4374L40.8334 35.3974C41.4135 34.0148 41.654 32.5133 41.5347 31.0187C39.0874 31.5672 36.8462 32.7994 35.072 34.572C33.296 36.3466 32.0629 38.5908 31.5174 41.0414C32.6752 41.1304 33.8394 41.0057 34.952 40.6734L35.7187 43.228C34.252 43.668 32.7094 43.8187 31.188 43.6867C31.1401 45.4893 31.4597 47.2827 32.1275 48.9577C32.7952 50.6327 33.7971 52.1542 35.072 53.4294C36.3477 54.7037 37.8692 55.7051 39.5441 56.3729C41.219 57.0406 43.0123 57.3606 44.8147 57.3134C44.6803 55.7877 44.8359 54.2505 45.2734 52.7827L47.828 53.5494C47.4958 54.662 47.371 55.8263 47.46 56.984C49.9103 56.4366 52.1545 55.2038 53.9307 53.4294C55.7036 51.6548 56.9358 49.4131 57.4841 46.9654C55.9895 46.8471 54.4883 47.0876 53.1054 47.6667L52.0654 45.212C53.8784 44.4462 55.8519 44.138 57.812 44.3147ZM40.7267 40.2307C39.867 41.0911 38.8816 41.8159 37.804 42.38L36.568 40.0174C37.9533 39.2928 39.1343 38.2319 40.0027 36.932L42.22 38.416C41.7827 39.0694 41.28 39.68 40.7267 40.2307ZM50.1587 49.6547C49.4876 50.3243 48.9225 51.0922 48.4827 51.932L46.12 50.696C47.0505 48.9156 48.413 47.3971 50.0827 46.28L51.5667 48.4974C51.0607 48.8363 50.5892 49.2239 50.1587 49.6547Z" fill="white"/>
<path d="M116.641 55H106.656V32.4531H116.469C120.703 32.4531 123.359 34.625 123.359 38.0781C123.359 40.5469 121.516 42.6094 119.125 42.9688V43.0938C122.188 43.3281 124.438 45.5625 124.438 48.5469C124.438 52.5156 121.453 55 116.641 55ZM111.375 35.9688V41.8281H114.766C117.281 41.8281 118.719 40.7188 118.719 38.8125C118.719 37 117.453 35.9688 115.25 35.9688H111.375ZM111.375 51.4844H115.438C118.156 51.4844 119.625 50.3281 119.625 48.1719C119.625 46.0625 118.109 44.9375 115.328 44.9375H111.375V51.4844ZM133.203 51.9688C135.188 51.9688 136.828 50.6719 136.828 48.8594V47.6406L133.297 47.8594C131.594 47.9844 130.625 48.75 130.625 49.9375C130.625 51.1875 131.656 51.9688 133.203 51.9688ZM131.703 55.2656C128.516 55.2656 126.094 53.2031 126.094 50.1875C126.094 47.1406 128.438 45.375 132.609 45.125L136.828 44.875V43.7656C136.828 42.2031 135.734 41.2969 134.016 41.2969C132.312 41.2969 131.234 42.1406 131.016 43.375H126.844C127.016 40.125 129.781 37.8906 134.219 37.8906C138.516 37.8906 141.312 40.1094 141.312 43.4844V55H136.906V52.4375H136.812C135.875 54.2188 133.797 55.2656 131.703 55.2656ZM143.984 43.1719C143.984 39.9844 146.75 37.8906 151.047 37.8906C155.25 37.8906 157.984 40.0156 158.047 43.2656H153.844C153.75 41.9219 152.672 41.0938 150.984 41.0938C149.406 41.0938 148.375 41.8125 148.375 42.8906C148.375 43.7188 149.094 44.2812 150.562 44.625L153.766 45.3125C157.125 46.0625 158.484 47.3906 158.484 49.8906C158.484 53.1875 155.453 55.3594 151.031 55.3594C146.562 55.3594 143.812 53.2031 143.562 49.9375H148.016C148.234 51.3438 149.344 52.1562 151.156 52.1562C152.891 52.1562 153.938 51.4688 153.938 50.375C153.938 49.5312 153.375 49.0625 151.875 48.7031L148.781 48.0156C145.609 47.2969 143.984 45.6406 143.984 43.1719ZM168.281 41.2656C166.281 41.2656 164.844 42.7812 164.688 44.875H171.797C171.703 42.7344 170.312 41.2656 168.281 41.2656ZM171.859 49.875H176.047C175.547 53.1562 172.547 55.3594 168.406 55.3594C163.25 55.3594 160.156 52.0625 160.156 46.7031C160.156 41.3594 163.281 37.8906 168.234 37.8906C173.109 37.8906 176.188 41.1875 176.188 46.2812V47.6719H164.641V47.9531C164.641 50.3438 166.156 51.9844 168.484 51.9844C170.156 51.9844 171.438 51.1562 171.859 49.875ZM188.5 55.2656C186.047 55.2656 184.172 54.0781 183.25 52.125H183.156V55H178.656V32.4531H183.219V41.1562H183.312C184.234 39.1719 186.094 37.9844 188.484 37.9844C192.703 37.9844 195.297 41.2188 195.297 46.625C195.297 52.0156 192.719 55.2656 188.5 55.2656ZM186.922 41.6406C184.719 41.6406 183.203 43.625 183.203 46.625C183.203 49.6562 184.703 51.5938 186.922 51.5938C189.203 51.5938 190.625 49.6875 190.625 46.625C190.625 43.5781 189.188 41.6406 186.922 41.6406ZM204.141 51.9688C206.125 51.9688 207.766 50.6719 207.766 48.8594V47.6406L204.234 47.8594C202.531 47.9844 201.562 48.75 201.562 49.9375C201.562 51.1875 202.594 51.9688 204.141 51.9688ZM202.641 55.2656C199.453 55.2656 197.031 53.2031 197.031 50.1875C197.031 47.1406 199.375 45.375 203.547 45.125L207.766 44.875V43.7656C207.766 42.2031 206.672 41.2969 204.953 41.2969C203.25 41.2969 202.172 42.1406 201.953 43.375H197.781C197.953 40.125 200.719 37.8906 205.156 37.8906C209.453 37.8906 212.25 40.1094 212.25 43.4844V55H207.844V52.4375H207.75C206.812 54.2188 204.734 55.2656 202.641 55.2656ZM215.312 55V32.4531H219.875V55H215.312ZM223.062 55V32.4531H227.625V55H223.062Z" fill="white"/>
<defs>
<linearGradient id="paint0_linear_2824_16213" x1="135" y1="0" x2="135" y2="88" gradientUnits="userSpaceOnUse">
<stop stop-color="#040B20"/>
<stop offset="1" stop-color="#030818"/>
</linearGradient>
</defs>
</svg>
