<svg width="246" height="88" viewBox="0 0 246 88" fill="none" xmlns="http://www.w3.org/2000/svg">
<rect x="0.5" width="245" height="88" rx="44" fill="url(#paint0_linear_2824_16190)"/>
<rect x="1" y="0.5" width="244" height="87" rx="43.5" stroke="white" stroke-opacity="0.1"/>
<rect x="4.5" y="4" width="80" height="80" rx="40" fill="#040E29"/>
<rect x="5" y="4.5" width="79" height="79" rx="39.5" stroke="white" stroke-opacity="0.1"/>
<path d="M53.8333 52V56C53.8333 56.3536 53.6929 56.6928 53.4428 56.9428C53.1928 57.1929 52.8536 57.3333 52.5 57.3333H39.8333C39.4797 57.3333 39.1406 57.1929 38.8905 56.9428C38.6405 56.6928 38.5 56.3536 38.5 56V52" stroke="white" stroke-width="2" stroke-miterlimit="2" stroke-linecap="round" stroke-linejoin="round"/>
<path d="M35.8334 37.9998V34.6665C35.8334 33.6056 36.2548 32.5882 37.005 31.8381C37.7551 31.0879 38.7725 30.6665 39.8334 30.6665H53.8334C54.8943 30.6665 55.9117 31.0879 56.6618 31.8381C57.412 32.5882 57.8334 33.6056 57.8334 34.6665V47.9998C57.8334 50.2092 56.0467 51.9998 53.8374 51.9998H38.5001C33.8334 51.9998 31.1667 46.6665 31.1667 43.3332V37.9998H35.8334Z" fill="white" stroke="white" stroke-width="2" stroke-miterlimit="2" stroke-linecap="round" stroke-linejoin="round"/>
<path d="M35.8335 37.333V42.6663" stroke="white" stroke-width="2" stroke-linecap="round"/>
<path d="M116.641 55H106.656V32.4531H116.469C120.703 32.4531 123.359 34.625 123.359 38.0781C123.359 40.5469 121.516 42.6094 119.125 42.9688V43.0938C122.188 43.3281 124.438 45.5625 124.438 48.5469C124.438 52.5156 121.453 55 116.641 55ZM111.375 35.9688V41.8281H114.766C117.281 41.8281 118.719 40.7188 118.719 38.8125C118.719 37 117.453 35.9688 115.25 35.9688H111.375ZM111.375 51.4844H115.438C118.156 51.4844 119.625 50.3281 119.625 48.1719C119.625 46.0625 118.109 44.9375 115.328 44.9375H111.375V51.4844ZM134.422 55.3594C129.359 55.3594 126.125 52.1094 126.125 46.6094C126.125 41.1875 129.406 37.8906 134.422 37.8906C139.438 37.8906 142.719 41.1719 142.719 46.6094C142.719 52.125 139.484 55.3594 134.422 55.3594ZM134.422 51.875C136.656 51.875 138.078 49.9844 138.078 46.625C138.078 43.2969 136.641 41.375 134.422 41.375C132.203 41.375 130.75 43.2969 130.75 46.625C130.75 49.9844 132.172 51.875 134.422 51.875ZM151.562 49.1875H151.469L148.328 55H143.531L148.781 46.6562L143.562 38.25H148.703L151.719 43.9062H151.812L154.781 38.25H159.75L154.516 46.5312L159.703 55H154.75L151.562 49.1875ZM161.656 55V38.25H166.219V55H161.656ZM163.938 36.4062C162.562 36.4062 161.5 35.3594 161.5 34.0469C161.5 32.7188 162.562 31.6875 163.938 31.6875C165.312 31.6875 166.375 32.7188 166.375 34.0469C166.375 35.3594 165.312 36.4062 163.938 36.4062ZM169.266 55V38.25H173.672V41.2344H173.766C174.656 39.1562 176.422 37.9375 179 37.9375C182.719 37.9375 184.812 40.2812 184.812 44.2031V55H180.25V45.1562C180.25 42.9688 179.219 41.7188 177.172 41.7188C175.125 41.7188 173.828 43.2188 173.828 45.3906V55H169.266ZM195.438 51.4375C197.719 51.4375 199.172 49.625 199.172 46.5938C199.172 43.5781 197.719 41.6406 195.438 41.6406C193.188 41.6406 191.766 43.5469 191.766 46.5938C191.766 49.6562 193.172 51.4375 195.438 51.4375ZM195.359 61.3125C190.953 61.3125 187.969 59.1719 187.609 56.1875H192.078C192.438 57.3438 193.75 58.1406 195.484 58.1406C197.844 58.1406 199.156 56.8281 199.156 54.8906V51.9531H199.062C198.281 53.7344 196.312 54.9531 193.891 54.9531C189.797 54.9531 187.094 51.7969 187.094 46.5625C187.094 41.25 189.719 37.9844 193.969 37.9844C196.375 37.9844 198.266 39.25 199.141 41.1719H199.219V38.25H203.719V54.7656C203.719 58.7656 200.375 61.3125 195.359 61.3125Z" fill="white"/>
<defs>
<linearGradient id="paint0_linear_2824_16190" x1="123" y1="0" x2="123" y2="88" gradientUnits="userSpaceOnUse">
<stop stop-color="#040B20"/>
<stop offset="1" stop-color="#030818"/>
</linearGradient>
</defs>
</svg>
