<svg width="17" height="18" viewBox="0 0 17 18" fill="none" xmlns="http://www.w3.org/2000/svg">
<path fill-rule="evenodd" clip-rule="evenodd" d="M8.50033 17.3332C13.1027 17.3332 16.8337 13.6022 16.8337 8.99984C16.8337 4.39746 13.1027 0.666504 8.50033 0.666504C3.89795 0.666504 0.166992 4.39746 0.166992 8.99984C0.166992 13.6022 3.89795 17.3332 8.50033 17.3332ZM12.327 6.88358C12.5389 6.61111 12.4898 6.21844 12.2174 6.00652C11.9449 5.7946 11.5522 5.84369 11.3403 6.11615L8.00115 10.4094C7.9269 10.5048 7.78723 10.5172 7.69733 10.4363L5.5851 8.53531C5.32853 8.3044 4.93335 8.32519 4.70244 8.58176C4.47153 8.83833 4.49233 9.23351 4.74889 9.46442L6.86113 11.3654C7.4904 11.9318 8.46808 11.8451 8.98784 11.1768L12.327 6.88358Z" fill="white"/>
</svg>
