<svg xmlns="http://www.w3.org/2000/svg" width="30" height="32" viewBox="0 0 30 32" fill="none">
  <path d="M14.9267 10.9855C15.6006 10.3085 16.4445 9.82584 17.3697 9.58823V2.67226C17.3697 1.96353 17.0881 1.28383 16.587 0.782687C16.0859 0.281541 15.4062 0 14.6974 0L2.67226 0C1.96353 0 1.28383 0.281541 0.782687 0.782687C0.281541 1.28383 0 1.96353 0 2.67226V14.6974C0 15.4062 0.281541 16.0859 0.782687 16.587C1.28383 17.0881 1.96353 17.3697 2.67226 17.3697H8.54254L14.9267 10.9855ZM12.0252 4.00839C12.2894 4.00839 12.5478 4.08675 12.7675 4.23357C12.9872 4.38038 13.1585 4.58906 13.2596 4.8332C13.3607 5.07735 13.3872 5.346 13.3356 5.60518C13.2841 5.86437 13.1568 6.10244 12.97 6.2893C12.7831 6.47617 12.545 6.60342 12.2858 6.65497C12.0266 6.70653 11.758 6.68007 11.5139 6.57894C11.2697 6.47781 11.061 6.30656 10.9142 6.08683C10.7674 5.86711 10.689 5.60878 10.689 5.34452C10.689 4.99015 10.8298 4.6503 11.0804 4.39973C11.331 4.14916 11.6708 4.00839 12.0252 4.00839ZM12.0252 9.35291C12.2894 9.35291 12.5478 9.43127 12.7675 9.57808C12.9872 9.7249 13.1585 9.93358 13.2596 10.1777C13.3607 10.4219 13.3872 10.6905 13.3356 10.9497C13.2841 11.2089 13.1568 11.447 12.97 11.6338C12.7831 11.8207 12.545 11.9479 12.2858 11.9995C12.0266 12.051 11.758 12.0246 11.5139 11.9235C11.2697 11.8223 11.061 11.6511 10.9142 11.4314C10.7674 11.2116 10.689 10.9533 10.689 10.689C10.689 10.3347 10.8298 9.99482 11.0804 9.74425C11.331 9.49368 11.6708 9.35291 12.0252 9.35291ZM5.34452 4.00839C5.60878 4.00839 5.86711 4.08675 6.08683 4.23357C6.30656 4.38038 6.47781 4.58906 6.57894 4.8332C6.68007 5.07735 6.70653 5.346 6.65497 5.60518C6.60342 5.86437 6.47617 6.10244 6.2893 6.2893C6.10244 6.47617 5.86437 6.60342 5.60518 6.65497C5.346 6.70653 5.07735 6.68007 4.8332 6.57894C4.58906 6.47781 4.38038 6.30656 4.23357 6.08683C4.08675 5.86711 4.00839 5.60878 4.00839 5.34452C4.00839 4.99015 4.14916 4.6503 4.39973 4.39973C4.65031 4.14916 4.99015 4.00839 5.34452 4.00839ZM5.34452 13.3613C5.08026 13.3613 4.82193 13.2829 4.6022 13.1361C4.38248 12.9893 4.21122 12.7806 4.1101 12.5365C4.00897 12.2923 3.98251 12.0237 4.03406 11.7645C4.08562 11.5053 4.21287 11.2672 4.39973 11.0804C4.58659 10.8935 4.82467 10.7663 5.08385 10.7147C5.34304 10.6632 5.61169 10.6896 5.85583 10.7907C6.09998 10.8919 6.30865 11.0631 6.45547 11.2829C6.60228 11.5026 6.68065 11.7609 6.68065 12.0252C6.68065 12.3795 6.53988 12.7194 6.2893 12.97C6.03873 13.2205 5.69888 13.3613 5.34452 13.3613Z" fill="white"/>
  <path d="M28.1534 18.544L21.3164 11.7068C21.0904 11.48 20.8253 11.2958 20.534 11.1629C18.8419 10.3958 17.0527 10.7488 15.8714 11.9311L9.03424 18.7675C8.80742 18.9935 8.62316 19.2586 8.49027 19.5499C7.72316 21.242 8.07623 23.0312 9.25854 24.2125L16.0955 31.0497C16.3216 31.2765 16.5866 31.4607 16.878 31.5936C18.57 32.3607 20.3593 32.0077 21.5406 30.8254L28.3777 23.9884C28.6045 23.7623 28.7888 23.4973 28.9217 23.2059C29.6881 21.5145 29.3351 19.7248 28.1534 18.544ZM18.7056 22.7144C18.4414 22.7144 18.1831 22.636 17.9633 22.4892C17.7436 22.3424 17.5723 22.1337 17.4712 21.8896C17.3701 21.6454 17.3436 21.3768 17.3952 21.1176C17.4467 20.8584 17.574 20.6203 17.7609 20.4335C17.9477 20.2466 18.1858 20.1194 18.445 20.0678C18.7042 20.0162 18.9728 20.0427 19.217 20.1438C19.4611 20.245 19.6698 20.4162 19.8166 20.6359C19.9634 20.8557 20.0418 21.114 20.0418 21.3783C20.0418 21.7326 19.901 22.0725 19.6504 22.323C19.3999 22.5736 19.06 22.7144 18.7056 22.7144Z" fill="white"/>
</svg>