<svg width="263" height="88" viewBox="0 0 263 88" fill="none" xmlns="http://www.w3.org/2000/svg">
<rect x="0.5" width="262" height="88" rx="44" fill="url(#paint0_linear_2824_16194)"/>
<rect x="1" y="0.5" width="261" height="87" rx="43.5" stroke="white" stroke-opacity="0.1"/>
<rect x="4.5" y="4" width="80" height="80" rx="40" fill="#040E29"/>
<rect x="5" y="4.5" width="79" height="79" rx="39.5" stroke="white" stroke-opacity="0.1"/>
<path d="M44.5 28C35.6777 28 28.5 35.1777 28.5 44C28.5 52.8223 35.6777 60 44.5 60C53.3223 60 60.5 52.8223 60.5 44C60.5 35.1777 53.3223 28 44.5 28ZM55.5 51.3846H52.0215C51.9138 51.3844 51.8079 51.3558 51.7146 51.3018C51.6214 51.2478 51.5439 51.1703 51.49 51.0769L50.2485 48.9477C50.1667 48.8085 50.143 48.6427 50.1823 48.4862L51.3254 43.8769C51.3483 43.7841 51.3926 43.6978 51.4547 43.625C51.5168 43.5523 51.595 43.495 51.6831 43.4577L53.8446 42.5423C53.9502 42.4975 54.0663 42.4831 54.1796 42.5008C54.293 42.5185 54.3992 42.5675 54.4862 42.6423L57.6885 45.3977C57.7674 45.4657 57.8278 45.5525 57.864 45.6502C57.9002 45.7479 57.911 45.8532 57.8954 45.9562C57.6302 47.7756 56.9945 49.5214 56.0277 51.0854C55.9731 51.1766 55.8958 51.2521 55.8033 51.3045C55.7108 51.357 55.6063 51.3846 55.5 51.3846ZM35.1554 42.5485L37.3169 43.4638C37.405 43.5011 37.4832 43.5584 37.5453 43.6312C37.6074 43.704 37.6517 43.7902 37.6746 43.8831L38.8177 48.4923C38.857 48.6489 38.8333 48.8146 38.7515 48.9538L37.51 51.0769C37.4561 51.1703 37.3786 51.2478 37.2854 51.3018C37.1921 51.3558 37.0862 51.3844 36.9785 51.3846H33.5C33.3948 51.3847 33.2913 51.3578 33.1995 51.3065C33.1076 51.2552 33.0305 51.1812 32.9754 51.0915C32.0086 49.5275 31.3729 47.7818 31.1077 45.9623C31.0921 45.8593 31.1029 45.7541 31.1391 45.6564C31.1753 45.5587 31.2357 45.4718 31.3146 45.4038L34.5169 42.6485C34.6036 42.5742 34.7092 42.5256 34.822 42.5079C34.9347 42.4902 35.0502 42.5043 35.1554 42.5485ZM54.92 35.8377L53.53 39.79C53.5021 39.8708 53.4576 39.9448 53.3995 40.0075C53.3413 40.0701 53.2708 40.12 53.1923 40.1538L50.9169 41.1177C50.8125 41.1619 50.6979 41.1763 50.5858 41.1595C50.4737 41.1427 50.3684 41.0952 50.2815 41.0223L45.9538 37.3923C45.8847 37.3351 45.8289 37.2634 45.7904 37.1824C45.7518 37.1013 45.7315 37.0128 45.7308 36.9231V34.34C45.7308 34.2388 45.7559 34.1392 45.8036 34.0499C45.8514 33.9607 45.9204 33.8846 46.0046 33.8285L49.2992 31.6331C49.3852 31.5757 49.4843 31.5409 49.5872 31.5319C49.6902 31.5229 49.7938 31.5399 49.8885 31.5815C51.7842 32.4083 53.4666 33.6563 54.8077 35.2308C54.8782 35.3131 54.9257 35.4126 54.9454 35.5191C54.9652 35.6257 54.9564 35.7356 54.92 35.8377ZM39.7 31.6331L42.9954 33.8285C43.0796 33.8846 43.1486 33.9607 43.1964 34.0499C43.2441 34.1392 43.2692 34.2388 43.2692 34.34V36.9231C43.2692 37.013 43.2495 37.1018 43.2115 37.1832C43.1735 37.2647 43.1181 37.3369 43.0492 37.3946L38.7215 41.0246C38.6347 41.0975 38.5294 41.145 38.4173 41.1618C38.3052 41.1786 38.1906 41.1642 38.0862 41.12L35.8077 40.1538C35.7287 40.1204 35.6576 40.0708 35.5989 40.0083C35.5403 39.9458 35.4953 39.8717 35.4669 39.7908L34.0769 35.8385C34.0408 35.736 34.0325 35.6258 34.0527 35.5191C34.073 35.4123 34.1211 35.3129 34.1923 35.2308C35.5342 33.6547 37.2179 32.4056 39.1154 31.5785C39.2097 31.5381 39.3125 31.522 39.4146 31.5315C39.5167 31.5411 39.6148 31.576 39.7 31.6331ZM41.0315 56.8223L39.5138 53C39.4791 52.9131 39.4647 52.8195 39.4716 52.7261C39.4786 52.6328 39.5067 52.5423 39.5538 52.4615L40.7208 50.4615C40.7747 50.3682 40.8521 50.2906 40.9454 50.2366C41.0387 50.1826 41.1445 50.1541 41.2523 50.1538H47.7477C47.8555 50.1541 47.9613 50.1826 48.0546 50.2366C48.1479 50.2906 48.2253 50.3682 48.2792 50.4615L49.4469 52.4615C49.4942 52.5423 49.5225 52.6328 49.5295 52.7261C49.5366 52.8194 49.5223 52.9131 49.4877 53L47.9808 56.8208C47.9439 56.9142 47.8848 56.9972 47.8085 57.0625C47.7322 57.1278 47.6411 57.1734 47.5431 57.1954C45.5434 57.6543 43.4658 57.6543 41.4662 57.1954C41.3689 57.1731 41.2785 57.1275 41.2028 57.0625C41.1271 56.9975 41.0683 56.9151 41.0315 56.8223Z" fill="white"/>
<path d="M111.438 55H106.719V32.4531H121.484V36.3438H111.438V42.3906H120.609V46.125H111.438V55ZM131.109 55.3594C126.047 55.3594 122.812 52.1094 122.812 46.6094C122.812 41.1875 126.094 37.8906 131.109 37.8906C136.125 37.8906 139.406 41.1719 139.406 46.6094C139.406 52.125 136.172 55.3594 131.109 55.3594ZM131.109 51.875C133.344 51.875 134.766 49.9844 134.766 46.625C134.766 43.2969 133.328 41.375 131.109 41.375C128.891 41.375 127.438 43.2969 127.438 46.625C127.438 49.9844 128.859 51.875 131.109 51.875ZM149.453 55.3594C144.391 55.3594 141.156 52.1094 141.156 46.6094C141.156 41.1875 144.438 37.8906 149.453 37.8906C154.469 37.8906 157.75 41.1719 157.75 46.6094C157.75 52.125 154.516 55.3594 149.453 55.3594ZM149.453 51.875C151.688 51.875 153.109 49.9844 153.109 46.625C153.109 43.2969 151.672 41.375 149.453 41.375C147.234 41.375 145.781 43.2969 145.781 46.625C145.781 49.9844 147.203 51.875 149.453 51.875ZM161.328 34.3906H165.891V38.25H168.984V41.6875H165.891V49.7031C165.891 50.9844 166.516 51.5938 167.859 51.5938C168.266 51.5938 168.688 51.5625 168.969 51.5156V54.875C168.5 54.9844 167.719 55.0625 166.797 55.0625C162.859 55.0625 161.328 53.75 161.328 50.4844V41.6875H158.969V38.25H161.328V34.3906ZM181.438 55.2656C178.984 55.2656 177.109 54.0781 176.188 52.125H176.094V55H171.594V32.4531H176.156V41.1562H176.25C177.172 39.1719 179.031 37.9844 181.422 37.9844C185.641 37.9844 188.234 41.2188 188.234 46.625C188.234 52.0156 185.656 55.2656 181.438 55.2656ZM179.859 41.6406C177.656 41.6406 176.141 43.625 176.141 46.625C176.141 49.6562 177.641 51.5938 179.859 51.5938C182.141 51.5938 183.562 49.6875 183.562 46.625C183.562 43.5781 182.125 41.6406 179.859 41.6406ZM197.078 51.9688C199.062 51.9688 200.703 50.6719 200.703 48.8594V47.6406L197.172 47.8594C195.469 47.9844 194.5 48.75 194.5 49.9375C194.5 51.1875 195.531 51.9688 197.078 51.9688ZM195.578 55.2656C192.391 55.2656 189.969 53.2031 189.969 50.1875C189.969 47.1406 192.312 45.375 196.484 45.125L200.703 44.875V43.7656C200.703 42.2031 199.609 41.2969 197.891 41.2969C196.188 41.2969 195.109 42.1406 194.891 43.375H190.719C190.891 40.125 193.656 37.8906 198.094 37.8906C202.391 37.8906 205.188 40.1094 205.188 43.4844V55H200.781V52.4375H200.688C199.75 54.2188 197.672 55.2656 195.578 55.2656ZM208.25 55V32.4531H212.812V55H208.25ZM216 55V32.4531H220.562V55H216Z" fill="white"/>
<defs>
<linearGradient id="paint0_linear_2824_16194" x1="131.5" y1="0" x2="131.5" y2="88" gradientUnits="userSpaceOnUse">
<stop stop-color="#040B20"/>
<stop offset="1" stop-color="#030818"/>
</linearGradient>
</defs>
</svg>
