<svg width="32" height="32" viewBox="0 0 32 32" fill="none" xmlns="http://www.w3.org/2000/svg">
<g id="emojione:flag-for-germany">
<path id="Vector" d="M15.9498 1C9.3998 1 3.8498 5.2 1.7998 11H30.0998C28.0498 5.2 22.4998 1 15.9498 1Z" fill="#3E4347"/>
<path id="Vector_2" d="M15.9498 31C22.4998 31 28.0498 26.85 30.0998 21H1.7998C3.8498 26.85 9.3998 31 15.9498 31Z" fill="#FFE62E"/>
<path id="Vector_3" d="M1.8002 11C1.2502 12.55 0.950195 14.25 0.950195 16C0.950195 17.75 1.2502 19.45 1.8002 21H30.1002C30.6502 19.45 30.9502 17.75 30.9502 16C30.9502 14.25 30.6502 12.55 30.1002 11H1.8002Z" fill="#ED4C5C"/>
</g>
</svg>
