<svg xmlns="http://www.w3.org/2000/svg" width="32" height="32" viewBox="0 0 32 32" fill="none">
  <path fill-rule="evenodd" clip-rule="evenodd" d="M25.6744 2.23256C25.0582 2.23256 24.5581 1.73247 24.5581 1.11628C24.5581 0.500093 25.0582 0 25.6744 0H27.9069C30.1678 0 32 1.83219 32 4.09303V6.32558C32 6.94177 31.4999 7.44186 30.8837 7.44186C30.2675 7.44186 29.7674 6.94177 29.7674 6.32558V4.09303C29.7674 3.06605 28.9339 2.23256 27.9069 2.23256H25.6744Z" fill="white"/>
  <path fill-rule="evenodd" clip-rule="evenodd" d="M25.6744 32C25.0582 32 24.5581 31.4999 24.5581 30.8837C24.5581 30.2675 25.0582 29.7674 25.6744 29.7674H27.9069C28.9339 29.7674 29.7674 28.9339 29.7674 27.9069V25.6744C29.7674 25.0582 30.2675 24.5581 30.8837 24.5581C31.4999 24.5581 32 25.0582 32 25.6744V27.9069C32 30.1678 30.1678 32 27.9069 32H25.6744Z" fill="white"/>
  <path fill-rule="evenodd" clip-rule="evenodd" d="M6.32559 0C6.94177 0 7.44186 0.500093 7.44186 1.11628C7.44186 1.73247 6.94177 2.23256 6.32559 2.23256H4.09303C3.06605 2.23256 2.23256 3.06605 2.23256 4.09303V6.32558C2.23256 6.94177 1.73247 7.44186 1.11628 7.44186C0.500093 7.44186 0 6.94177 0 6.32558V4.09303C0 1.83219 1.83219 0 4.09303 0H6.32559Z" fill="white"/>
  <path fill-rule="evenodd" clip-rule="evenodd" d="M6.32559 29.7674C6.94177 29.7674 7.44186 30.2675 7.44186 30.8837C7.44186 31.4999 6.94177 32 6.32559 32H4.09303C1.83219 32 0 30.1678 0 27.9069V25.6744C0 25.0582 0.500093 24.5581 1.11628 24.5581C1.73247 24.5581 2.23256 25.0582 2.23256 25.6744V27.9069C2.23256 28.9339 3.06605 29.7674 4.09303 29.7674H6.32559Z" fill="white"/>
  <path fill-rule="evenodd" clip-rule="evenodd" d="M27.5349 6.3258V10.7909C27.5349 11.2836 27.3384 11.7569 26.9901 12.1066C26.6404 12.4549 26.1685 12.6514 25.6744 12.6514H6.32555C5.83141 12.6514 5.3596 12.4549 5.00983 12.1066C4.66155 11.7569 4.46509 11.2836 4.46509 10.7909V6.3258C4.46509 5.83315 4.66155 5.35984 5.00983 5.01008C5.3596 4.6618 5.83141 4.46533 6.32555 4.46533H25.6744C26.1685 4.46533 26.6404 4.6618 26.9901 5.01008C27.3384 5.35984 27.5349 5.83166 27.5349 6.3258Z" fill="white"/>
  <path fill-rule="evenodd" clip-rule="evenodd" d="M14.8837 16.7443V25.6745C14.8837 26.7015 14.0502 27.535 13.0232 27.535H6.32555C5.29858 27.535 4.46509 26.7015 4.46509 25.6745V16.7443C4.46509 15.7173 5.29858 14.8838 6.32555 14.8838H13.0232C14.0502 14.8838 14.8837 15.7173 14.8837 16.7443Z" fill="white"/>
  <path fill-rule="evenodd" clip-rule="evenodd" d="M27.5351 16.7443V25.6745C27.5351 26.7015 26.7016 27.535 25.6746 27.535H18.9769C17.9499 27.535 17.1165 26.7015 17.1165 25.6745V16.7443C17.1165 15.7173 17.9499 14.8838 18.9769 14.8838H25.6746C26.7016 14.8838 27.5351 15.7173 27.5351 16.7443Z" fill="white"/>
  <path fill-rule="evenodd" clip-rule="evenodd" d="M29.7673 10.0465C29.7673 9.43027 30.2674 8.93018 30.8836 8.93018C31.4998 8.93018 31.9999 9.43027 31.9999 10.0465V11.5348C31.9999 12.151 31.4998 12.6511 30.8836 12.6511C30.2674 12.6511 29.7673 12.151 29.7673 11.5348V10.0465Z" fill="white"/>
  <path fill-rule="evenodd" clip-rule="evenodd" d="M10.0465 2.23256C9.43027 2.23256 8.93018 1.73247 8.93018 1.11628C8.93018 0.500093 9.43027 0 10.0465 0H11.5348C12.151 0 12.6511 0.500093 12.6511 1.11628C12.6511 1.73247 12.151 2.23256 11.5348 2.23256H10.0465Z" fill="white"/>
  <path fill-rule="evenodd" clip-rule="evenodd" d="M0 10.0465C0 9.43027 0.500093 8.93018 1.11628 8.93018C1.73247 8.93018 2.23256 9.43027 2.23256 10.0465V11.5348C2.23256 12.151 1.73247 12.6511 1.11628 12.6511C0.500093 12.6511 0 12.151 0 11.5348V10.0465Z" fill="white"/>
  <path fill-rule="evenodd" clip-rule="evenodd" d="M10.0465 32.0001C9.43027 32.0001 8.93018 31.5 8.93018 30.8839C8.93018 30.2677 9.43027 29.7676 10.0465 29.7676H11.5348C12.151 29.7676 12.6511 30.2677 12.6511 30.8839C12.6511 31.5 12.151 32.0001 11.5348 32.0001H10.0465Z" fill="white"/>
  <path fill-rule="evenodd" clip-rule="evenodd" d="M29.7673 15.2559C29.7673 14.6397 30.2674 14.1396 30.8836 14.1396C31.4998 14.1396 31.9999 14.6397 31.9999 15.2559V16.7443C31.9999 17.3605 31.4998 17.8606 30.8836 17.8606C30.2674 17.8606 29.7673 17.3605 29.7673 16.7443V15.2559Z" fill="white"/>
  <path fill-rule="evenodd" clip-rule="evenodd" d="M15.2557 2.23256C14.6395 2.23256 14.1394 1.73247 14.1394 1.11628C14.1394 0.500093 14.6395 0 15.2557 0H16.7441C17.3602 0 17.8603 0.500093 17.8603 1.11628C17.8603 1.73247 17.3602 2.23256 16.7441 2.23256H15.2557Z" fill="white"/>
  <path fill-rule="evenodd" clip-rule="evenodd" d="M0 15.2559C0 14.6397 0.500093 14.1396 1.11628 14.1396C1.73247 14.1396 2.23256 14.6397 2.23256 15.2559V16.7443C2.23256 17.3605 1.73247 17.8606 1.11628 17.8606C0.500093 17.8606 0 17.3605 0 16.7443V15.2559Z" fill="white"/>
  <path fill-rule="evenodd" clip-rule="evenodd" d="M15.2557 32.0001C14.6395 32.0001 14.1394 31.5 14.1394 30.8839C14.1394 30.2677 14.6395 29.7676 15.2557 29.7676H16.7441C17.3602 29.7676 17.8603 30.2677 17.8603 30.8839C17.8603 31.5 17.3602 32.0001 16.7441 32.0001H15.2557Z" fill="white"/>
  <path fill-rule="evenodd" clip-rule="evenodd" d="M29.7673 20.4654C29.7673 19.8492 30.2674 19.3491 30.8836 19.3491C31.4998 19.3491 31.9999 19.8492 31.9999 20.4654V21.9538C31.9999 22.57 31.4998 23.0701 30.8836 23.0701C30.2674 23.0701 29.7673 22.57 29.7673 21.9538V20.4654Z" fill="white"/>
  <path fill-rule="evenodd" clip-rule="evenodd" d="M20.4652 2.23256C19.849 2.23256 19.3489 1.73247 19.3489 1.11628C19.3489 0.500093 19.849 0 20.4652 0H21.9535C22.5697 0 23.0698 0.500093 23.0698 1.11628C23.0698 1.73247 22.5697 2.23256 21.9535 2.23256H20.4652Z" fill="white"/>
  <path fill-rule="evenodd" clip-rule="evenodd" d="M0 20.4654C0 19.8492 0.500093 19.3491 1.11628 19.3491C1.73247 19.3491 2.23256 19.8492 2.23256 20.4654V21.9538C2.23256 22.57 1.73247 23.0701 1.11628 23.0701C0.500093 23.0701 0 22.57 0 21.9538V20.4654Z" fill="white"/>
  <path fill-rule="evenodd" clip-rule="evenodd" d="M20.4652 32.0001C19.849 32.0001 19.3489 31.5 19.3489 30.8839C19.3489 30.2677 19.849 29.7676 20.4652 29.7676H21.9535C22.5697 29.7676 23.0698 30.2677 23.0698 30.8839C23.0698 31.5 22.5697 32.0001 21.9535 32.0001H20.4652Z" fill="white"/>
</svg>