<svg xmlns="http://www.w3.org/2000/svg" width="32" height="32" viewBox="0 0 32 32" fill="none">
  <g clip-path="url(#clip0_2824_18807)">
    <path d="M4 18C4 16.3457 5.3457 15 7 15C8.6543 15 10 16.3457 10 18H12C12 18 12 14.7397 12 14.7305C12 13.9833 12.8609 13.4919 13.5054 13.8672C14.1551 14.2455 15 13.7526 15 13C15 12.2737 14.1437 11.7572 13.5055 12.1327C12.8536 12.5164 12 12.0224 12 11.2695V6H3C1.3457 6 0 7.3457 0 9V18H4Z" fill="white"/>
    <path d="M12 28C10.3457 28 9 26.6543 9 25C9 23.3457 10.3457 22 12 22V20H8.72998C7.98402 20 7.47878 19.158 7.86715 18.4942C8.2422 17.8532 7.757 17.0001 7.00007 17C6.27583 17 5.75916 17.8577 6.13277 18.4941C6.5168 19.1481 6.02669 20 5.27002 20H0V29C0 30.6543 1.3457 32 3 32H12V28Z" fill="white"/>
    <path d="M22 20C22 21.6543 20.6543 23 19 23C17.3457 23 16 21.6543 16 20H14V23.2695C14 24.0188 13.141 24.51 12.4946 24.1328C11.8487 23.7559 11 24.2464 11 25C11 25.729 11.8551 26.2436 12.4946 25.8672C13.1431 25.4855 14 25.9849 14 26.7305V32H23C24.6543 32 26 30.6543 26 29V20H22Z" fill="white"/>
    <path d="M29 0H19C18.4473 0 18 0.44727 18 1V5.26951C18 6.02762 18.8523 6.51417 19.5058 6.13283C20.1602 5.751 21 6.25521 21 6.99997C21 7.72998 20.1464 8.2454 19.5059 7.86724C18.8565 7.48375 18 7.98498 18 8.73047V13C18 13.5527 18.4473 14 19 14H22C22 15.6543 23.3457 17 25 17C26.6543 17 28 15.6543 28 14H31C31.5527 14 32 13.5527 32 13V3C32 1.3457 30.6543 0 29 0Z" fill="white"/>
  </g>
  <defs>
    <clipPath id="clip0_2824_18807">
      <rect width="32" height="32" fill="white"/>
    </clipPath>
  </defs>
</svg>