<svg width="481" height="218" viewBox="0 0 481 218" fill="none" xmlns="http://www.w3.org/2000/svg">
<g style="mix-blend-mode:lighten">
<g style="mix-blend-mode:lighten">
<path opacity="0.25" d="M0.0917969 160.395L148.644 160.615C154.367 160.624 159.88 162.772 164.099 166.638L210.507 209.165C214.726 213.032 220.239 215.18 225.962 215.189L479.99 215.566" stroke="url(#paint0_linear_2606_16064)" stroke-width="4.29937"/>
<path opacity="0.25" d="M0.149414 126L286.688 126.425C293.074 126.435 299.166 129.107 303.498 133.798L340.263 173.616C344.594 178.307 350.686 180.979 357.072 180.988L480.047 181.171" stroke="url(#paint1_linear_2606_16064)" stroke-width="4.29937"/>
</g>
<g style="mix-blend-mode:lighten">
<path opacity="0.25" d="M480.048 37.395L331.495 37.6155C325.772 37.624 320.26 39.7724 316.041 43.6387L269.633 86.1659C265.414 90.0321 259.901 92.1805 254.178 92.189L0.149857 92.566" stroke="url(#paint2_linear_2606_16064)" stroke-width="4.29937"/>
<path opacity="0.25" d="M479.99 3.00024L193.452 3.42551C187.066 3.43498 180.974 6.10701 176.642 10.7983L139.877 50.616C135.545 55.3072 129.453 57.9793 123.067 57.9887L0.0922398 58.1712" stroke="url(#paint3_linear_2606_16064)" stroke-width="4.29937"/>
</g>
</g>
<defs>
<linearGradient id="paint0_linear_2606_16064" x1="372" y1="207" x2="84.5153" y2="131.441" gradientUnits="userSpaceOnUse">
<stop stop-color="#1972F5" stop-opacity="0.1"/>
<stop offset="1" stop-color="#1972F5"/>
</linearGradient>
<linearGradient id="paint1_linear_2606_16064" x1="479.999" y1="181" x2="25.4206" y2="126.659" gradientUnits="userSpaceOnUse">
<stop stop-color="#1972F5" stop-opacity="0.01"/>
<stop offset="1" stop-color="#1972F5"/>
</linearGradient>
<linearGradient id="paint2_linear_2606_16064" x1="279.5" y1="65" x2="-5.99191" y2="50.7663" gradientUnits="userSpaceOnUse">
<stop stop-color="#1972F5" stop-opacity="0.1"/>
<stop offset="1" stop-color="#1972F5"/>
</linearGradient>
<linearGradient id="paint3_linear_2606_16064" x1="450.122" y1="16.3132" x2="-6.04569" y2="15.6514" gradientUnits="userSpaceOnUse">
<stop stop-color="#1972F5" stop-opacity="0.01"/>
<stop offset="1" stop-color="#1972F5"/>
</linearGradient>
</defs>
</svg>
