<svg width="24" height="26" viewBox="0 0 24 26" fill="none" xmlns="http://www.w3.org/2000/svg">
<path d="M0.452582 1.14148C0.165906 1.43407 0 1.88961 0 2.47956V23.5225C0 24.1124 0.165906 24.568 0.452582 24.8606L0.523337 24.9248L12.6174 13.1378V12.8595L0.523337 1.07249L0.452582 1.14148Z" fill="white"/>
<path d="M18.1081 17.0684L14.0812 13.1374V12.8591L18.113 8.92808L18.2033 8.97922L22.9779 11.628C24.3406 12.3797 24.3406 13.6167 22.9779 14.3732L18.2033 17.0172L18.1081 17.0684Z" fill="white"/>
<path d="M17.4717 17.7497L13.3496 13.7307L1.18475 25.5926C1.63734 26.0565 2.37538 26.1124 3.21467 25.6485L17.4717 17.7497Z" fill="white"/>
<path d="M17.4717 8.24761L3.21467 0.348776C2.37538 -0.110334 1.63734 -0.0544333 1.18475 0.409434L13.3496 12.2666L17.4717 8.24761Z" fill="white"/>
</svg>
