<svg xmlns="http://www.w3.org/2000/svg" width="28" height="32" viewBox="0 0 28 32" fill="none">
  <path d="M13.6247 9.90381C10.2627 9.90381 7.52759 12.6389 7.52759 16.0007C7.52759 19.3628 10.2627 22.0979 13.6247 22.0979C16.9866 22.0979 19.7217 19.3628 19.7217 16.0007C19.7217 12.6389 16.9866 9.90381 13.6247 9.90381ZM17.2446 14.8525L12.8767 19.2204C12.6934 19.4038 12.4529 19.4956 12.2126 19.4956C11.9724 19.4956 11.7322 19.404 11.5488 19.2204L9.87963 17.5513C9.51294 17.1848 9.51294 16.5903 9.87963 16.2236C10.2461 15.8569 10.8406 15.8569 11.2073 16.2236L12.2126 17.229L15.917 13.5249C16.2834 13.1582 16.8779 13.1582 17.2446 13.5249C17.6113 13.8914 17.6113 14.4858 17.2446 14.8525Z" fill="white"/>
  <path d="M27.218 8.68242L27.217 8.65752C27.2031 8.35014 27.1938 8.02495 27.1882 7.66313C27.162 5.89873 25.7595 4.43926 23.9948 4.34063C20.3156 4.13531 17.4694 2.9356 15.0376 0.565246L15.0168 0.54547C14.2236 -0.181823 13.0271 -0.181823 12.2336 0.54547L12.2129 0.565246C9.78098 2.9356 6.93479 4.13531 3.2556 4.34087C1.4912 4.43926 0.0883673 5.89873 0.0622444 7.66338C0.0568733 8.02275 0.0473518 8.34795 0.0334358 8.65752L0.031971 8.71538C-0.0395621 12.4671 -0.128429 17.1363 1.43358 21.3743C2.29246 23.7048 3.59324 25.7307 5.29954 27.396C7.24289 29.2925 9.7883 30.7981 12.865 31.8708C12.9651 31.9058 13.0691 31.9341 13.175 31.9553C13.3244 31.9851 13.4748 32 13.6252 32C13.7756 32 13.9262 31.9851 14.0754 31.9553C14.1814 31.9341 14.2861 31.9055 14.3867 31.8704C17.4597 30.7957 20.0024 29.2893 21.944 27.3931C23.6496 25.7273 24.9504 23.7009 25.81 21.3699C27.3779 17.1192 27.2892 12.4412 27.218 8.68242ZM13.6247 23.9754C9.22727 23.9754 5.64988 20.398 5.64988 16.0005C5.64988 11.6031 9.22727 8.02568 13.6247 8.02568C18.0219 8.02568 21.5996 11.6031 21.5996 16.0005C21.5996 20.398 18.0219 23.9754 13.6247 23.9754Z" fill="white"/>
</svg>