<svg width="511" height="324" viewBox="0 0 511 324" fill="none" xmlns="http://www.w3.org/2000/svg">
<rect y="38.5" width="184" height="247" rx="20" fill="#060C21"/>
<rect x="0.5" y="39" width="183" height="246" rx="19.5" stroke="white" stroke-opacity="0.1"/>
<circle cx="92" cy="113.5" r="37.6914" stroke="white" stroke-opacity="0.1" stroke-width="10.6173"/>
<mask id="path-4-inside-1_2606_16276" fill="white">
<path d="M129.493 113.5C132.534 113.5 135.036 111.025 134.648 108.008C134.164 104.249 133.184 100.562 131.727 97.0446C129.566 91.8276 126.399 87.0873 122.406 83.0944C118.413 79.1015 113.672 75.9341 108.455 73.7732C104.938 72.3164 101.251 71.3363 97.4919 70.8521C94.4754 70.4637 92 72.9655 92 76.0069C92 79.0482 94.4833 81.4656 97.4797 81.9866C99.7932 82.3889 102.061 83.0457 104.241 83.9485C108.121 85.556 111.648 87.9121 114.618 90.8823C117.588 93.8525 119.944 97.3786 121.551 101.259C122.454 103.439 123.111 105.707 123.513 108.02C124.034 111.017 126.452 113.5 129.493 113.5Z"/>
</mask>
<path d="M129.493 113.5C132.534 113.5 135.036 111.025 134.648 108.008C134.164 104.249 133.184 100.562 131.727 97.0446C129.566 91.8276 126.399 87.0873 122.406 83.0944C118.413 79.1015 113.672 75.9341 108.455 73.7732C104.938 72.3164 101.251 71.3363 97.4919 70.8521C94.4754 70.4637 92 72.9655 92 76.0069C92 79.0482 94.4833 81.4656 97.4797 81.9866C99.7932 82.3889 102.061 83.0457 104.241 83.9485C108.121 85.556 111.648 87.9121 114.618 90.8823C117.588 93.8525 119.944 97.3786 121.551 101.259C122.454 103.439 123.111 105.707 123.513 108.02C124.034 111.017 126.452 113.5 129.493 113.5Z" stroke="#1972F5" stroke-width="21.2346" mask="url(#path-4-inside-1_2606_16276)"/>
<path d="M76.0073 111.572C76.0073 109.232 77.8879 107.522 80.4704 107.522C82.945 107.522 84.7896 109.097 84.7896 111.158C84.7896 112.67 83.9798 113.794 82.0811 115.738L78.8327 119.004V119.049H84.9966V120.75H76.1152V119.382L80.8034 114.604C82.3871 112.957 82.801 112.274 82.801 111.257C82.801 110.105 81.7572 109.187 80.4074 109.187C78.9857 109.187 77.9149 110.213 77.9149 111.563V111.59H76.0073V111.572ZM89.2442 114.874V113.29H90.8099C92.2136 113.29 93.1764 112.409 93.1764 111.185C93.1764 109.979 92.3486 109.178 90.8099 109.178C89.4061 109.178 88.4703 109.988 88.3533 111.266H86.4547C86.6076 108.989 88.3263 107.522 90.8998 107.522C93.3564 107.522 95.1471 108.917 95.1471 110.915C95.1471 112.535 94.0853 113.695 92.4746 113.983V114.019C94.4272 114.154 95.687 115.351 95.687 117.169C95.687 119.436 93.6263 120.993 90.9178 120.993C88.1194 120.993 86.3197 119.454 86.1937 117.214H88.1284C88.2543 118.455 89.2801 119.31 90.9178 119.31C92.5015 119.31 93.6353 118.41 93.6353 117.142C93.6353 115.738 92.5735 114.874 90.8639 114.874H89.2442ZM102.256 110.852C102.256 112.849 101.149 114.127 99.4486 114.127C97.7389 114.127 96.6321 112.849 96.6321 110.852C96.6321 108.854 97.7389 107.576 99.4486 107.576C101.149 107.576 102.256 108.854 102.256 110.852ZM99.4486 112.858C100.159 112.858 100.609 112.094 100.609 110.843C100.609 109.601 100.159 108.836 99.4486 108.836C98.7287 108.836 98.2788 109.601 98.2788 110.843C98.2788 112.094 98.7287 112.858 99.4486 112.858ZM99.3676 120.75H97.586L102.607 113.884L107.079 107.765H108.852L103.966 114.46L99.3676 120.75ZM109.806 117.628C109.806 119.625 108.708 120.903 106.998 120.903C105.289 120.903 104.191 119.625 104.191 117.628C104.191 115.621 105.289 114.343 106.998 114.343C108.708 114.343 109.806 115.621 109.806 117.628ZM106.998 119.625C107.718 119.625 108.159 118.869 108.159 117.619C108.159 116.368 107.718 115.612 106.998 115.612C106.278 115.612 105.837 116.368 105.837 117.619C105.837 118.869 106.278 119.625 106.998 119.625Z" fill="white"/>
<path d="M65.0927 176.752H66.6034C66.7128 177.729 67.663 178.372 68.9618 178.372C70.2059 178.372 71.1014 177.729 71.1014 176.848C71.1014 176.082 70.5614 175.624 69.2831 175.31L68.0048 175.002C66.1932 174.564 65.3524 173.717 65.3524 172.343C65.3524 170.641 66.8358 169.472 68.9413 169.472C71.0263 169.472 72.455 170.641 72.5028 172.343H71.0126C70.9237 171.358 70.1102 170.764 68.9208 170.764C67.7313 170.764 66.9179 171.365 66.9179 172.24C66.9179 172.938 67.4374 173.348 68.7089 173.662L69.7958 173.929C71.8192 174.407 72.66 175.221 72.66 176.663C72.66 178.509 71.1903 179.664 68.8524 179.664C66.6649 179.664 65.1884 178.536 65.0927 176.752ZM76.092 178.454C77.1242 178.454 77.9308 177.743 77.9308 176.807V176.239L76.1603 176.349C75.2785 176.41 74.7795 176.8 74.7795 177.415C74.7795 178.044 75.299 178.454 76.092 178.454ZM75.6818 179.623C74.2736 179.623 73.2892 178.748 73.2892 177.456C73.2892 176.198 74.2531 175.426 75.9621 175.33L77.9308 175.214V174.66C77.9308 173.86 77.3908 173.382 76.4884 173.382C75.6339 173.382 75.1007 173.792 74.9709 174.435H73.5763C73.6584 173.136 74.7658 172.179 76.5431 172.179C78.2863 172.179 79.4006 173.102 79.4006 174.544V179.5H77.9855V178.317H77.9513C77.5343 179.117 76.6252 179.623 75.6818 179.623ZM80.6108 179.5V169.636H82.0873V179.5H80.6108ZM86.3327 173.368C85.3005 173.368 84.5759 174.154 84.5007 175.241H88.0964C88.0622 174.141 87.365 173.368 86.3327 173.368ZM88.0896 177.388H89.4909C89.2859 178.7 88.0417 179.637 86.3943 179.637C84.282 179.637 83.0036 178.208 83.0036 175.938C83.0036 173.683 84.3025 172.179 86.3327 172.179C88.3288 172.179 89.573 173.587 89.573 175.768V176.273H84.4939V176.362C84.4939 177.613 85.2458 178.44 86.4284 178.44C87.2693 178.44 87.8913 178.017 88.0896 177.388ZM101.68 175.398C101.68 178.071 100.101 179.664 97.428 179.664C94.6048 179.664 92.8274 177.688 92.8274 174.523C92.8274 171.413 94.5979 169.472 97.4075 169.472C99.6018 169.472 101.263 170.771 101.605 172.739H100.033C99.6634 171.516 98.6995 170.812 97.4143 170.812C95.5276 170.812 94.3929 172.192 94.3929 174.51C94.3929 176.868 95.5618 178.324 97.4417 178.324C99.0413 178.324 100.149 177.299 100.169 175.802V175.631H97.6194V174.394H101.68V175.398ZM105.809 179.637C103.752 179.637 102.398 178.222 102.398 175.904C102.398 173.594 103.758 172.179 105.809 172.179C107.86 172.179 109.22 173.594 109.22 175.904C109.22 178.222 107.867 179.637 105.809 179.637ZM105.809 178.42C106.971 178.42 107.716 177.504 107.716 175.904C107.716 174.312 106.964 173.396 105.809 173.396C104.654 173.396 103.902 174.312 103.902 175.904C103.902 177.504 104.654 178.42 105.809 178.42ZM112.598 178.454C113.63 178.454 114.436 177.743 114.436 176.807V176.239L112.666 176.349C111.784 176.41 111.285 176.8 111.285 177.415C111.285 178.044 111.805 178.454 112.598 178.454ZM112.187 179.623C110.779 179.623 109.795 178.748 109.795 177.456C109.795 176.198 110.759 175.426 112.468 175.33L114.436 175.214V174.66C114.436 173.86 113.896 173.382 112.994 173.382C112.139 173.382 111.606 173.792 111.476 174.435H110.082C110.164 173.136 111.271 172.179 113.049 172.179C114.792 172.179 115.906 173.102 115.906 174.544V179.5H114.491V178.317H114.457C114.04 179.117 113.131 179.623 112.187 179.623ZM117.116 179.5V169.636H118.593V179.5H117.116Z" fill="white"/>
<path d="M60.9031 201.303H60.118V200.518C58.5359 200.4 57.493 199.492 57.4871 198.186H58.4891C58.5535 198.971 59.1512 199.492 60.118 199.609V196.562L59.6492 196.434C58.3953 196.105 57.6922 195.338 57.6922 194.248C57.6922 192.965 58.6238 192.092 60.118 191.945V191.125H60.9031V191.939C62.368 192.062 63.3289 192.971 63.3699 194.236H62.3738C62.3504 193.51 61.7703 192.953 60.9031 192.848V195.713L61.4012 195.836C62.8309 196.217 63.5164 196.926 63.5164 198.109C63.5164 199.498 62.5496 200.377 60.9031 200.512V201.303ZM62.5027 198.191C62.5027 197.418 62.0105 196.955 60.9031 196.721V199.627C61.9227 199.574 62.5027 199.047 62.5027 198.191ZM58.7 194.189C58.7 194.887 59.1922 195.35 60.118 195.543V192.848C59.2977 192.895 58.7 193.451 58.7 194.189ZM65.0694 200.5L68.8955 193.006V192.982H64.3428V192.045H69.9385V193.023L66.1768 200.5H65.0694ZM73.8118 200.641C72.1946 200.641 70.9993 199.633 70.9114 198.191H71.9485C72.0423 199.094 72.8098 199.715 73.8235 199.715C74.972 199.715 75.7688 198.918 75.7688 197.781C75.7688 196.645 74.9661 195.83 73.8411 195.83C73.0501 195.83 72.3763 196.188 72.0305 196.779H71.0403L71.5032 192.045H76.343V192.982H72.3704L72.1126 195.736H72.136C72.5169 195.227 73.22 194.922 74.0286 194.922C75.6516 194.922 76.8235 196.111 76.8235 197.752C76.8235 199.451 75.5755 200.641 73.8118 200.641ZM80.6441 200.641C78.6695 200.641 77.5269 198.941 77.5269 196.27C77.5269 193.621 78.6812 191.904 80.6441 191.904C82.607 191.904 83.7495 193.609 83.7495 196.264C83.7495 198.936 82.6128 200.641 80.6441 200.641ZM80.6441 199.721C81.9624 199.721 82.689 198.379 82.689 196.27C82.689 194.189 81.9507 192.83 80.6441 192.83C79.3374 192.83 78.5874 194.201 78.5874 196.264C78.5874 198.373 79.3198 199.721 80.6441 199.721ZM85.1619 202.182H84.3123L84.8806 199.199H85.9646L85.1619 202.182ZM90.2539 200.641C88.2793 200.641 87.1367 198.941 87.1367 196.27C87.1367 193.621 88.291 191.904 90.2539 191.904C92.2168 191.904 93.3594 193.609 93.3594 196.264C93.3594 198.936 92.2227 200.641 90.2539 200.641ZM90.2539 199.721C91.5723 199.721 92.2988 198.379 92.2988 196.27C92.2988 194.189 91.5605 192.83 90.2539 192.83C88.9473 192.83 88.1973 194.201 88.1973 196.264C88.1973 198.373 88.9297 199.721 90.2539 199.721ZM97.2913 200.641C95.3166 200.641 94.1741 198.941 94.1741 196.27C94.1741 193.621 95.3284 191.904 97.2913 191.904C99.2541 191.904 100.397 193.609 100.397 196.264C100.397 198.936 99.26 200.641 97.2913 200.641ZM97.2913 199.721C98.6096 199.721 99.3362 198.379 99.3362 196.27C99.3362 194.189 98.5979 192.83 97.2913 192.83C95.9846 192.83 95.2346 194.201 95.2346 196.264C95.2346 198.373 95.967 199.721 97.2913 199.721ZM104.329 200.641C102.354 200.641 101.211 198.941 101.211 196.27C101.211 193.621 102.366 191.904 104.329 191.904C106.291 191.904 107.434 193.609 107.434 196.264C107.434 198.936 106.297 200.641 104.329 200.641ZM104.329 199.721C105.647 199.721 106.374 198.379 106.374 196.27C106.374 194.189 105.635 192.83 104.329 192.83C103.022 192.83 102.272 194.201 102.272 196.264C102.272 198.373 103.004 199.721 104.329 199.721ZM108.594 202.299H107.721L110.716 192.045H111.589L108.594 202.299ZM112.011 200.5V194.406H112.972V195.379H112.995C113.282 194.734 113.903 194.301 114.724 194.301C115.556 194.301 116.171 194.723 116.435 195.461H116.458C116.798 194.734 117.513 194.301 118.368 194.301C119.575 194.301 120.354 195.086 120.354 196.293V200.5H119.335V196.527C119.335 195.695 118.872 195.203 118.069 195.203C117.261 195.203 116.692 195.801 116.692 196.627V200.5H115.673V196.416C115.673 195.684 115.181 195.203 114.425 195.203C113.616 195.203 113.03 195.836 113.03 196.68V200.5H112.011ZM123.941 200.605C122.253 200.605 121.116 199.393 121.116 197.453C121.116 195.508 122.253 194.301 123.941 194.301C125.622 194.301 126.759 195.508 126.759 197.453C126.759 199.393 125.622 200.605 123.941 200.605ZM123.941 199.709C125.019 199.709 125.722 198.889 125.722 197.453C125.722 196.018 125.019 195.197 123.941 195.197C122.863 195.197 122.154 196.018 122.154 197.453C122.154 198.889 122.863 199.709 123.941 199.709Z" fill="#CCCCCC"/>
<g filter="url(#filter0_i_2606_16276)">
<rect x="32" y="223.5" width="120" height="30" rx="10" fill="#1972F5"/>
<rect x="32" y="223.5" width="120" height="30" rx="10" fill="url(#paint0_linear_2606_16276)"/>
<rect x="32.5" y="224" width="119" height="29" rx="9.5" stroke="#3D7FDE"/>
<path d="M77.6221 241.553V242.5H73.1494V235.454H77.6221V236.396H74.2432V238.457H77.4414V239.365H74.2432V241.553H77.6221ZM80.5469 242.588C79.248 242.588 78.3887 241.553 78.3887 239.932C78.3887 238.311 79.248 237.28 80.5371 237.28C81.2744 237.28 81.8604 237.651 82.1484 238.218H82.168V235.454H83.2275V242.5H82.2021V241.626H82.1826C81.8799 242.212 81.2939 242.588 80.5469 242.588ZM80.8252 238.169C79.9902 238.169 79.4678 238.853 79.4678 239.932C79.4678 241.016 79.9902 241.694 80.8252 241.694C81.6357 241.694 82.1777 241.006 82.1777 239.932C82.1777 238.867 81.6357 238.169 80.8252 238.169ZM84.3457 242.5V237.363H85.4004V242.5H84.3457ZM84.873 236.611C84.5361 236.611 84.2627 236.343 84.2627 236.011C84.2627 235.674 84.5361 235.405 84.873 235.405C85.2148 235.405 85.4883 235.674 85.4883 236.011C85.4883 236.343 85.2148 236.611 84.873 236.611ZM86.7871 236.147H87.8467V237.363H88.8232V238.198H87.8467V241.03C87.8467 241.475 88.042 241.675 88.4717 241.675C88.5791 241.675 88.75 241.665 88.8184 241.65V242.485C88.7012 242.515 88.4668 242.534 88.2324 242.534C87.1924 242.534 86.7871 242.139 86.7871 241.147V238.198H86.04V237.363H86.7871V236.147ZM94.6924 242.5H93.5986V236.396H91.4404V235.454H96.8457V236.396H94.6924V242.5ZM98.1299 241.753C98.8672 241.753 99.4434 241.245 99.4434 240.576V240.171L98.1787 240.249C97.5488 240.293 97.1924 240.571 97.1924 241.011C97.1924 241.46 97.5635 241.753 98.1299 241.753ZM97.8369 242.588C96.8311 242.588 96.1279 241.963 96.1279 241.04C96.1279 240.142 96.8164 239.59 98.0371 239.521L99.4434 239.438V239.043C99.4434 238.472 99.0576 238.13 98.4131 238.13C97.8027 238.13 97.4219 238.423 97.3291 238.882H96.333C96.3916 237.954 97.1826 237.271 98.4521 237.271C99.6973 237.271 100.493 237.93 100.493 238.96V242.5H99.4824V241.655H99.458C99.1602 242.227 98.5107 242.588 97.8369 242.588ZM101.426 238.818C101.426 237.9 102.236 237.271 103.438 237.271C104.58 237.271 105.381 237.91 105.415 238.823H104.424C104.375 238.359 103.999 238.071 103.408 238.071C102.837 238.071 102.456 238.35 102.456 238.755C102.456 239.072 102.71 239.287 103.242 239.419L104.106 239.619C105.142 239.868 105.532 240.259 105.532 241.016C105.532 241.953 104.658 242.598 103.398 242.598C102.183 242.598 101.377 241.968 101.294 241.025H102.339C102.422 241.519 102.803 241.792 103.447 241.792C104.082 241.792 104.473 241.528 104.473 241.113C104.473 240.786 104.277 240.605 103.74 240.469L102.822 240.244C101.895 240.02 101.426 239.536 101.426 238.818ZM107.456 239.565L109.531 237.363H110.771L108.643 239.575L110.854 242.5H109.629L107.886 240.22L107.446 240.654V242.5H106.392V235.454H107.446V239.565H107.456Z" fill="white"/>
</g>
<rect x="206" width="305" height="324" rx="28" fill="#FF5834"/>
<mask id="path-12-inside-2_2606_16276" fill="white">
<path d="M226 20H491V51.2093H226V20Z"/>
</mask>
<path d="M491 50.3372H226V52.0814H491V50.3372Z" fill="white" fill-opacity="0.1" mask="url(#path-12-inside-2_2606_16276)"/>
<path fill-rule="evenodd" clip-rule="evenodd" d="M302.259 33.56C302.494 33.3719 302.532 33.0289 302.344 32.7939L299.71 29.5006L302.344 26.2074C302.532 25.9724 302.494 25.6294 302.259 25.4413C302.024 25.2533 301.681 25.2914 301.493 25.5264L298.586 29.1602C298.427 29.3592 298.427 29.6421 298.586 29.8411L301.493 33.4749C301.681 33.7099 302.024 33.748 302.259 33.56Z" fill="white" fill-opacity="0.8"/>
<path d="M328.196 31.9187H329.89C330.012 33.0148 331.078 33.7353 332.534 33.7353C333.929 33.7353 334.933 33.0148 334.933 32.026C334.933 31.1676 334.328 30.654 332.894 30.3014L331.461 29.9565C329.43 29.466 328.487 28.5155 328.487 26.9749C328.487 25.0663 330.15 23.7556 332.511 23.7556C334.849 23.7556 336.451 25.0663 336.505 26.9749H334.834C334.734 25.8711 333.822 25.2043 332.488 25.2043C331.154 25.2043 330.242 25.8788 330.242 26.8599C330.242 27.6417 330.825 28.1016 332.251 28.4542L333.469 28.7531C335.738 29.2897 336.681 30.2018 336.681 31.8191C336.681 33.8886 335.033 35.184 332.412 35.184C329.959 35.184 328.303 33.9193 328.196 31.9187ZM344.63 29.7112H343.051C342.882 28.8528 342.238 28.1706 341.157 28.1706C339.877 28.1706 339.034 29.236 339.034 30.9683C339.034 32.7389 339.885 33.766 341.173 33.766C342.192 33.766 342.859 33.2064 343.051 32.2713H344.645C344.469 33.9882 343.097 35.1533 341.157 35.1533C338.85 35.1533 337.348 33.5743 337.348 30.9683C337.348 28.4082 338.85 26.7909 341.142 26.7909C343.219 26.7909 344.484 28.1246 344.63 29.7112ZM345.565 35V23.9396H347.205V28.2856H347.244C347.688 27.3428 348.57 26.7986 349.796 26.7986C351.567 26.7986 352.624 27.979 352.624 29.8032V35H350.961V30.1251C350.961 28.9371 350.363 28.2242 349.198 28.2242C347.972 28.2242 347.221 29.0674 347.221 30.3398V35H345.565ZM357.285 28.1246C356.128 28.1246 355.315 29.0061 355.231 30.2248H359.263C359.224 28.9907 358.442 28.1246 357.285 28.1246ZM359.255 32.6316H360.826C360.596 34.1032 359.201 35.1533 357.354 35.1533C354.985 35.1533 353.552 33.5513 353.552 31.0066C353.552 28.4772 355.008 26.7909 357.285 26.7909C359.523 26.7909 360.918 28.3699 360.918 30.815V31.3822H355.223V31.4818C355.223 32.8845 356.066 33.8119 357.392 33.8119C358.335 33.8119 359.033 33.3367 359.255 32.6316ZM364.919 35.138C362.881 35.138 361.532 33.513 361.532 30.9683C361.532 28.4235 362.881 26.8062 364.904 26.8062C366.062 26.8062 366.981 27.3888 367.434 28.2779H367.464V23.9396H369.128V35H367.518V33.628H367.487C367.012 34.5478 366.092 35.138 364.919 35.138ZM365.356 28.2013C364.046 28.2013 363.226 29.2743 363.226 30.9683C363.226 32.6699 364.046 33.7353 365.356 33.7353C366.629 33.7353 367.48 32.6545 367.48 30.9683C367.48 29.2973 366.629 28.2013 365.356 28.2013ZM377.429 26.9365V35H375.842V33.6357H375.804C375.359 34.6014 374.539 35.1456 373.305 35.1456C371.55 35.1456 370.477 34.0036 370.477 32.1563V26.9365H372.132V31.8344C372.132 33.0608 372.715 33.72 373.857 33.72C375.053 33.72 375.773 32.8922 375.773 31.6351V26.9365H377.429ZM378.817 35V23.9396H380.472V35H378.817ZM385.232 28.1246C384.075 28.1246 383.262 29.0061 383.178 30.2248H387.21C387.172 28.9907 386.39 28.1246 385.232 28.1246ZM387.202 32.6316H388.774C388.544 34.1032 387.149 35.1533 385.301 35.1533C382.933 35.1533 381.5 33.5513 381.5 31.0066C381.5 28.4772 382.956 26.7909 385.232 26.7909C387.47 26.7909 388.865 28.3699 388.865 30.815V31.3822H383.17V31.4818C383.17 32.8845 384.014 33.8119 385.34 33.8119C386.282 33.8119 386.98 33.3367 387.202 32.6316Z" fill="white"/>
<path fill-rule="evenodd" clip-rule="evenodd" d="M414.741 25.4401C414.506 25.6282 414.468 25.9712 414.656 26.2063L417.29 29.4995L414.656 32.7927C414.468 33.0278 414.506 33.3708 414.741 33.5588C414.976 33.7469 415.319 33.7088 415.507 33.4737L418.414 29.84C418.573 29.6409 418.573 29.358 418.414 29.159L415.507 25.5253C415.319 25.2902 414.976 25.2521 414.741 25.4401Z" fill="white" fill-opacity="0.8"/>
<path d="M249.231 83.2094H248.009V76.8782H247.967L245.374 83.1438H244.384L241.785 76.8782H241.743V83.2094H240.527V74.6068H242.071L244.855 81.397H244.903L247.681 74.6068H249.231V83.2094Z" fill="white"/>
<path d="M283.42 83.2095H282.085V75.7575H279.45V74.6069H286.049V75.7575H283.42V83.2095Z" fill="white"/>
<path d="M320.591 76.7233L318.737 83.2095H317.473L315.154 74.6069H316.543L318.134 81.3435H318.182L320 74.6069H321.24L323.065 81.3435H323.112L324.704 74.6069H326.093L323.768 83.2095H322.51L320.65 76.7233H320.591Z" fill="white"/>
<path d="M359.168 83.2095H357.832V75.7575H355.197V74.6069H361.797V75.7575H359.168V83.2095Z" fill="white"/>
<path d="M395.235 83.2095H393.9V74.6069H399.271V75.7575H395.235V78.4819H398.931V79.6087H395.235V83.2095Z" fill="white"/>
<path d="M430.951 80.8129H432.268C432.364 81.6654 433.192 82.2258 434.325 82.2258C435.41 82.2258 436.191 81.6654 436.191 80.8964C436.191 80.2287 435.72 79.8293 434.605 79.555L433.49 79.2868C431.91 78.9052 431.177 78.166 431.177 76.9677C431.177 75.4833 432.471 74.4638 434.307 74.4638C436.125 74.4638 437.371 75.4833 437.413 76.9677H436.113C436.036 76.1092 435.326 75.5906 434.289 75.5906C433.252 75.5906 432.542 76.1152 432.542 76.8783C432.542 77.4864 432.995 77.8441 434.104 78.1183L435.052 78.3508C436.817 78.7681 437.55 79.4775 437.55 80.7354C437.55 82.345 436.268 83.3526 434.23 83.3526C432.322 83.3526 431.034 82.3689 430.951 80.8129Z" fill="white"/>
<path d="M476.473 83.2095H475.251V76.8783H475.209L472.616 83.1439H471.626L469.027 76.8783H468.985V83.2095H467.769V74.6069H469.313L472.097 81.3972H472.145L474.923 74.6069H476.473V83.2095Z" fill="white"/>
<rect x="225.942" y="94.9303" width="34.8837" height="34.8837" rx="17.4419" fill="white" fill-opacity="0.1"/>
<path d="M236.811 110.791C236.811 109.241 238.057 108.109 239.768 108.109C241.407 108.109 242.63 109.152 242.63 110.517C242.63 111.519 242.093 112.264 240.835 113.552L238.683 115.716V115.745H242.767V116.872H236.883V115.966L239.989 112.8C241.038 111.709 241.312 111.256 241.312 110.583C241.312 109.82 240.62 109.212 239.726 109.212C238.784 109.212 238.075 109.891 238.075 110.785V110.803H236.811V110.791ZM246.946 117.039C245.676 117.039 244.657 116.389 244.096 115.227C243.745 114.541 243.566 113.695 243.566 112.687C243.566 109.808 244.853 108.103 247.006 108.103C248.526 108.103 249.706 109.015 249.968 110.386H248.633C248.424 109.683 247.781 109.223 246.994 109.223C245.64 109.223 244.853 110.452 244.847 112.616H244.871C245.247 111.781 246.159 111.221 247.232 111.221C248.872 111.221 250.088 112.431 250.088 114.064C250.088 115.787 248.77 117.039 246.946 117.039ZM246.934 115.912C247.947 115.912 248.758 115.114 248.758 114.106C248.758 113.063 248.001 112.312 246.946 112.312C245.897 112.312 245.116 113.063 245.116 114.082C245.116 115.102 245.909 115.912 246.934 115.912Z" fill="#FFC9BE"/>
<rect x="264.314" y="94.9303" width="34.8837" height="34.8837" rx="17.4419" fill="white" fill-opacity="0.1"/>
<path d="M275.541 110.791C275.541 109.241 276.787 108.109 278.498 108.109C280.137 108.109 281.359 109.152 281.359 110.517C281.359 111.519 280.823 112.264 279.565 113.552L277.413 115.716V115.745H281.496V116.872H275.612V115.966L278.718 112.8C279.768 111.709 280.042 111.256 280.042 110.583C280.042 109.82 279.35 109.212 278.456 109.212C277.514 109.212 276.805 109.891 276.805 110.785V110.803H275.541V110.791ZM282.916 116.872L286.737 109.426V109.396H282.2V108.27H288.054V109.426L284.316 116.872H282.916Z" fill="#FFC9BE"/>
<rect x="302.686" y="94.9303" width="34.8837" height="34.8837" rx="17.4419" fill="white" fill-opacity="0.1"/>
<path d="M313.537 110.791C313.537 109.241 314.783 108.109 316.494 108.109C318.134 108.109 319.356 109.152 319.356 110.517C319.356 111.519 318.819 112.264 317.561 113.552L315.409 115.716V115.745H319.493V116.872H313.609V115.966L316.715 112.8C317.764 111.709 318.038 111.256 318.038 110.583C318.038 109.82 317.347 109.212 316.453 109.212C315.511 109.212 314.801 109.891 314.801 110.785V110.803H313.537V110.791ZM323.541 117.033C321.621 117.033 320.286 116.002 320.286 114.547C320.286 113.45 321.061 112.574 322.2 112.335V112.306C321.246 112.043 320.632 111.298 320.632 110.374C320.632 109.068 321.854 108.109 323.541 108.109C325.234 108.109 326.444 109.063 326.444 110.38C326.444 111.292 325.836 112.031 324.882 112.306V112.335C326.027 112.574 326.796 113.456 326.796 114.547C326.796 116.008 325.449 117.033 323.541 117.033ZM323.541 115.96C324.638 115.96 325.413 115.328 325.413 114.452C325.413 113.564 324.638 112.932 323.541 112.932C322.444 112.932 321.663 113.569 321.663 114.452C321.663 115.328 322.444 115.96 323.541 115.96ZM323.541 111.859C324.465 111.859 325.127 111.298 325.127 110.517C325.127 109.73 324.471 109.17 323.541 109.17C322.605 109.17 321.955 109.73 321.955 110.517C321.955 111.298 322.605 111.859 323.541 111.859Z" fill="#FFC9BE"/>
<rect x="341.058" y="94.9303" width="34.8837" height="34.8837" rx="17.4419" fill="white" fill-opacity="0.1"/>
<path d="M351.927 110.791C351.927 109.241 353.173 108.109 354.884 108.109C356.524 108.109 357.746 109.152 357.746 110.517C357.746 111.519 357.209 112.264 355.951 113.552L353.799 115.716V115.745H357.883V116.872H351.999V115.966L355.105 112.8C356.154 111.709 356.428 111.256 356.428 110.583C356.428 109.82 355.737 109.212 354.842 109.212C353.901 109.212 353.191 109.891 353.191 110.785V110.803H351.927V110.791ZM361.71 117.033C360.178 117.033 358.992 116.115 358.736 114.75H360.077C360.28 115.453 360.935 115.924 361.728 115.924C363.07 115.924 363.857 114.684 363.857 112.514C363.857 112.514 363.851 112.514 363.845 112.514H363.839H363.833C363.487 113.361 362.581 113.921 361.472 113.921C359.838 113.921 358.616 112.711 358.616 111.078C358.616 109.355 359.94 108.103 361.758 108.103C363.034 108.103 364.059 108.753 364.614 109.909C364.965 110.595 365.144 111.441 365.144 112.449C365.144 115.328 363.869 117.033 361.71 117.033ZM361.758 112.83C362.813 112.83 363.6 112.073 363.6 111.06C363.6 110.04 362.801 109.241 361.776 109.241C360.751 109.241 359.946 110.034 359.946 111.036C359.946 112.067 360.715 112.83 361.758 112.83Z" fill="#FFC9BE"/>
<rect x="379.43" y="94.9303" width="34.8837" height="34.8837" rx="17.4419" fill="white" fill-opacity="0.1"/>
<path d="M392.034 112.979V111.93H393.072C394.002 111.93 394.64 111.346 394.64 110.535C394.64 109.736 394.091 109.206 393.072 109.206C392.142 109.206 391.522 109.742 391.444 110.589H390.186C390.288 109.08 391.426 108.109 393.131 108.109C394.759 108.109 395.945 109.033 395.945 110.356C395.945 111.429 395.242 112.198 394.175 112.389V112.413C395.468 112.502 396.303 113.295 396.303 114.499C396.303 116.002 394.938 117.033 393.143 117.033C391.289 117.033 390.097 116.014 390.013 114.529H391.295C391.379 115.352 392.058 115.918 393.143 115.918C394.192 115.918 394.944 115.322 394.944 114.482C394.944 113.552 394.24 112.979 393.107 112.979H392.034ZM400.446 117.033C398.384 117.033 397.162 115.304 397.162 112.562C397.162 109.838 398.396 108.109 400.446 108.109C402.503 108.109 403.719 109.832 403.719 112.556C403.719 115.298 402.509 117.033 400.446 117.033ZM400.446 115.912C401.674 115.912 402.372 114.643 402.372 112.562C402.372 110.511 401.663 109.229 400.446 109.229C399.23 109.229 398.515 110.517 398.515 112.562C398.515 114.637 399.218 115.912 400.446 115.912Z" fill="white"/>
<rect x="417.802" y="94.9303" width="34.8837" height="34.8837" rx="17.4419" fill="white" fill-opacity="0.1"/>
<path d="M435.298 116.872V109.593H435.268L433.021 111.191V109.879L435.286 108.27H436.604V116.872H435.298Z" fill="white"/>
<rect x="456.174" y="94.9303" width="34.8837" height="34.8837" rx="17.4419" fill="white" fill-opacity="0.1"/>
<path d="M470.677 110.791C470.677 109.241 471.923 108.109 473.634 108.109C475.274 108.109 476.496 109.152 476.496 110.517C476.496 111.519 475.959 112.264 474.701 113.552L472.549 115.716V115.745H476.633V116.872H470.749V115.966L473.855 112.8C474.904 111.709 475.178 111.256 475.178 110.583C475.178 109.82 474.487 109.212 473.592 109.212C472.65 109.212 471.941 109.891 471.941 110.785V110.803H470.677V110.791Z" fill="white"/>
<rect x="225.942" y="138.535" width="34.8837" height="34.8837" rx="17.4419" fill="white" fill-opacity="0.1"/>
<path d="M242.227 156.584V155.535H243.265C244.195 155.535 244.832 154.95 244.832 154.14C244.832 153.341 244.284 152.81 243.265 152.81C242.335 152.81 241.715 153.347 241.637 154.193H240.379C240.481 152.685 241.619 151.713 243.324 151.713C244.952 151.713 246.138 152.637 246.138 153.961C246.138 155.034 245.435 155.803 244.367 155.994V156.018C245.661 156.107 246.496 156.9 246.496 158.104C246.496 159.606 245.131 160.638 243.336 160.638C241.482 160.638 240.29 159.618 240.206 158.134H241.488C241.571 158.957 242.251 159.523 243.336 159.523C244.385 159.523 245.136 158.927 245.136 158.086C245.136 157.156 244.433 156.584 243.3 156.584H242.227Z" fill="white"/>
<rect x="264.314" y="138.535" width="34.8837" height="34.8837" rx="17.4419" fill="white" fill-opacity="0.1"/>
<path d="M282.722 160.477V158.778H278.417V157.609C279.157 156.22 280.134 154.676 282.072 151.874H284.003V157.657H285.184V158.778H284.003V160.477H282.722ZM279.663 157.645V157.675H282.734V152.906H282.71C281.219 155.058 280.349 156.399 279.663 157.645Z" fill="white"/>
<rect x="302.686" y="138.535" width="34.8837" height="34.8837" rx="17.4419" fill="white" fill-opacity="0.1"/>
<path d="M320.217 160.638C318.5 160.638 317.243 159.589 317.165 158.086H318.441C318.536 158.939 319.269 159.523 320.229 159.523C321.314 159.523 322.065 158.766 322.065 157.687C322.065 156.608 321.314 155.833 320.241 155.833C319.496 155.833 318.852 156.173 318.518 156.739H317.296L317.749 151.874H322.87V153.001H318.822L318.584 155.642H318.614C318.989 155.099 319.693 154.772 320.533 154.772C322.185 154.772 323.371 155.982 323.371 157.651C323.371 159.416 322.071 160.638 320.217 160.638Z" fill="white"/>
<rect x="341.058" y="138.535" width="34.8837" height="34.8837" rx="17.4419" fill="white" fill-opacity="0.1"/>
<path d="M358.649 160.644C357.379 160.644 356.36 159.994 355.799 158.831C355.448 158.146 355.269 157.299 355.269 156.292C355.269 153.412 356.557 151.707 358.709 151.707C360.229 151.707 361.409 152.619 361.672 153.991H360.336C360.128 153.287 359.484 152.828 358.697 152.828C357.343 152.828 356.557 154.056 356.551 156.22H356.574C356.95 155.386 357.862 154.825 358.935 154.825C360.575 154.825 361.791 156.035 361.791 157.669C361.791 159.392 360.473 160.644 358.649 160.644ZM358.637 159.517C359.651 159.517 360.461 158.718 360.461 157.711C360.461 156.667 359.704 155.916 358.649 155.916C357.6 155.916 356.819 156.667 356.819 157.687C356.819 158.706 357.612 159.517 358.637 159.517Z" fill="white"/>
<rect x="379.43" y="138.535" width="34.8837" height="34.8837" rx="17.4419" fill="white" fill-opacity="0.1"/>
<path d="M394.619 160.477L398.44 153.031V153.001H393.903V151.874H399.757V153.031L396.02 160.477H394.619Z" fill="white"/>
<rect x="417.802" y="138.535" width="34.8837" height="34.8837" rx="17.4419" fill="white" fill-opacity="0.1"/>
<path d="M435.244 160.638C433.325 160.638 431.989 159.606 431.989 158.152C431.989 157.055 432.764 156.179 433.903 155.94V155.91C432.949 155.648 432.335 154.903 432.335 153.979C432.335 152.673 433.557 151.713 435.244 151.713C436.937 151.713 438.147 152.667 438.147 153.985C438.147 154.897 437.539 155.636 436.585 155.91V155.94C437.73 156.179 438.499 157.061 438.499 158.152C438.499 159.612 437.152 160.638 435.244 160.638ZM435.244 159.565C436.341 159.565 437.116 158.933 437.116 158.056C437.116 157.168 436.341 156.536 435.244 156.536C434.147 156.536 433.366 157.174 433.366 158.056C433.366 158.933 434.147 159.565 435.244 159.565ZM435.244 155.463C436.168 155.463 436.83 154.903 436.83 154.122C436.83 153.335 436.174 152.774 435.244 152.774C434.308 152.774 433.658 153.335 433.658 154.122C433.658 154.903 434.308 155.463 435.244 155.463Z" fill="white"/>
<rect x="456.175" y="138.535" width="34.8837" height="34.8837" rx="17.4419" fill="white" fill-opacity="0.1"/>
<path d="M473.414 160.638C471.882 160.638 470.695 159.72 470.439 158.354H471.78C471.983 159.058 472.639 159.529 473.432 159.529C474.773 159.529 475.56 158.289 475.56 156.119C475.56 156.119 475.554 156.119 475.548 156.119H475.542H475.536C475.19 156.965 474.284 157.526 473.175 157.526C471.542 157.526 470.32 156.316 470.32 154.682C470.32 152.959 471.643 151.707 473.461 151.707C474.737 151.707 475.763 152.357 476.317 153.514C476.669 154.199 476.848 155.046 476.848 156.053C476.848 158.933 475.572 160.638 473.414 160.638ZM473.461 156.435C474.517 156.435 475.304 155.678 475.304 154.664C475.304 153.645 474.505 152.846 473.479 152.846C472.454 152.846 471.649 153.639 471.649 154.64C471.649 155.672 472.418 156.435 473.461 156.435Z" fill="white"/>
<rect x="225.942" y="182.14" width="34.8837" height="34.8837" rx="17.4419" fill="white" fill-opacity="0.1"/>
<path d="M239.756 204.082V196.802H239.726L237.479 198.4V197.089L239.744 195.479H241.062V204.082H239.756ZM246.052 204.243C243.989 204.243 242.767 202.514 242.767 199.771C242.767 197.047 244.001 195.318 246.052 195.318C248.108 195.318 249.325 197.041 249.325 199.765C249.325 202.508 248.114 204.243 246.052 204.243ZM246.052 203.122C247.28 203.122 247.977 201.852 247.977 199.771C247.977 197.721 247.268 196.439 246.052 196.439C244.836 196.439 244.12 197.727 244.12 199.771C244.12 201.846 244.824 203.122 246.052 203.122Z" fill="white"/>
<rect x="264.314" y="182.14" width="34.8837" height="34.8837" rx="17.4419" fill="white" fill-opacity="0.1"/>
<path d="M279.142 204.081V196.802H279.112L276.864 198.4V197.088L279.13 195.479H280.447V204.081H279.142ZM284.477 204.081V196.802H284.448L282.2 198.4V197.088L284.466 195.479H285.783V204.081H284.477Z" fill="white"/>
<rect x="302.686" y="182.14" width="34.8837" height="34.8837" rx="17.4419" fill="white" fill-opacity="0.1"/>
<path d="M316.768 204.081V196.802H316.739L314.491 198.4V197.088L316.757 195.479H318.074V204.081H316.768ZM319.857 198C319.857 196.45 321.103 195.318 322.814 195.318C324.453 195.318 325.675 196.361 325.675 197.726C325.675 198.728 325.139 199.473 323.881 200.761L321.729 202.925V202.955H325.812V204.081H319.928V203.175L323.034 200.01C324.084 198.919 324.358 198.465 324.358 197.792C324.358 197.029 323.666 196.421 322.772 196.421C321.83 196.421 321.121 197.1 321.121 197.995V198.012H319.857V198Z" fill="white"/>
<rect x="341.058" y="182.14" width="34.8837" height="34.8837" rx="17.4419" fill="white"/>
<path d="M354.604 204.081V197.13H354.568L352.374 198.644V197.023L354.598 195.479H356.387V204.081H354.604ZM360.166 200.326V199.026H361.21C362.032 199.026 362.587 198.537 362.587 197.828C362.587 197.13 362.092 196.671 361.198 196.671C360.363 196.671 359.809 197.166 359.761 197.917H358.104C358.169 196.325 359.409 195.288 361.275 195.288C363.064 195.288 364.286 196.206 364.286 197.583C364.286 198.638 363.564 199.401 362.509 199.592V199.628C363.791 199.735 364.62 200.51 364.62 201.703C364.62 203.247 363.219 204.272 361.234 204.272C359.29 204.272 358.02 203.205 357.937 201.619H359.66C359.713 202.346 360.309 202.823 361.257 202.823C362.158 202.823 362.789 202.317 362.789 201.589C362.789 200.802 362.199 200.326 361.228 200.326H360.166Z" fill="#FF5834"/>
<rect x="379.43" y="182.14" width="34.8837" height="34.8837" rx="17.4419" fill="white" fill-opacity="0.1"/>
<path d="M393.257 204.081V196.802H393.227L390.979 198.4V197.088L393.245 195.479H394.562V204.081H393.257ZM400.506 204.081V202.382H396.202V201.214C396.941 199.825 397.919 198.281 399.856 195.479H401.788V201.261H402.968V202.382H401.788V204.081H400.506ZM397.448 201.25V201.279H400.518V196.51H400.494C399.004 198.662 398.133 200.004 397.448 201.25Z" fill="white"/>
<rect x="417.802" y="182.14" width="34.8837" height="34.8837" rx="17.4419" fill="white" fill-opacity="0.1"/>
<path d="M431.76 204.081V196.802H431.73L429.482 198.4V197.088L431.748 195.479H433.065V204.081H431.76ZM438.002 204.242C436.285 204.242 435.027 203.193 434.949 201.691H436.225C436.321 202.543 437.054 203.127 438.014 203.127C439.099 203.127 439.85 202.37 439.85 201.291C439.85 200.212 439.099 199.437 438.026 199.437C437.28 199.437 436.637 199.777 436.303 200.343H435.081L435.534 195.479H440.655V196.605H436.607L436.368 199.246H436.398C436.774 198.704 437.477 198.376 438.318 198.376C439.969 198.376 441.155 199.586 441.155 201.256C441.155 203.02 439.856 204.242 438.002 204.242Z" fill="white"/>
<rect x="456.174" y="182.14" width="34.8837" height="34.8837" rx="17.4419" fill="white" fill-opacity="0.1"/>
<path d="M470.036 204.081V196.802H470.006L467.759 198.4V197.088L470.024 195.479H471.342V204.081H470.036ZM476.433 204.248C475.163 204.248 474.144 203.598 473.584 202.436C473.232 201.75 473.053 200.904 473.053 199.896C473.053 197.017 474.341 195.312 476.493 195.312C478.013 195.312 479.193 196.224 479.456 197.595H478.12C477.912 196.892 477.268 196.433 476.481 196.433C475.128 196.433 474.341 197.661 474.335 199.825H474.359C474.734 198.99 475.646 198.43 476.719 198.43C478.359 198.43 479.575 199.64 479.575 201.273C479.575 202.996 478.257 204.248 476.433 204.248ZM476.421 203.121C477.435 203.121 478.245 202.323 478.245 201.315C478.245 200.272 477.488 199.521 476.433 199.521C475.384 199.521 474.603 200.272 474.603 201.291C474.603 202.311 475.396 203.121 476.421 203.121Z" fill="white"/>
<rect x="225.942" y="225.744" width="34.8837" height="34.8837" rx="17.4419" fill="white" fill-opacity="0.1"/>
<path d="M240.161 247.686V240.407H240.132L237.884 242.005V240.693L240.15 239.083H241.467V247.686H240.161ZM243.798 247.686L247.62 240.24V240.21H243.083V239.083H248.937V240.24L245.199 247.686H243.798Z" fill="white"/>
<rect x="264.314" y="225.744" width="34.8837" height="34.8837" rx="17.4419" fill="white" fill-opacity="0.1"/>
<path d="M278.158 247.686V240.407H278.128L275.881 242.005V240.693L278.146 239.084H279.464V247.686H278.158ZM284.424 247.847C282.504 247.847 281.169 246.816 281.169 245.361C281.169 244.264 281.944 243.388 283.082 243.15V243.12C282.129 242.857 281.515 242.112 281.515 241.188C281.515 239.883 282.737 238.923 284.424 238.923C286.117 238.923 287.327 239.877 287.327 241.194C287.327 242.106 286.719 242.845 285.765 243.12V243.15C286.91 243.388 287.679 244.27 287.679 245.361C287.679 246.822 286.331 247.847 284.424 247.847ZM284.424 246.774C285.521 246.774 286.296 246.142 286.296 245.266C286.296 244.378 285.521 243.746 284.424 243.746C283.327 243.746 282.546 244.384 282.546 245.266C282.546 246.142 283.327 246.774 284.424 246.774ZM284.424 242.673C285.348 242.673 286.01 242.112 286.01 241.331C286.01 240.544 285.354 239.984 284.424 239.984C283.488 239.984 282.838 240.544 282.838 241.331C282.838 242.112 283.488 242.673 284.424 242.673Z" fill="white"/>
<rect x="302.686" y="225.744" width="34.8837" height="34.8837" rx="17.4419" fill="white" fill-opacity="0.1"/>
<path d="M316.548 247.686V240.407H316.518L314.271 242.005V240.693L316.536 239.084H317.853V247.686H316.548ZM322.593 247.847C321.061 247.847 319.875 246.929 319.618 245.564H320.96C321.162 246.267 321.818 246.738 322.611 246.738C323.952 246.738 324.739 245.498 324.739 243.328C324.739 243.328 324.733 243.328 324.727 243.328H324.721H324.715C324.37 244.175 323.464 244.735 322.355 244.735C320.721 244.735 319.499 243.525 319.499 241.892C319.499 240.169 320.823 238.917 322.641 238.917C323.917 238.917 324.942 239.567 325.496 240.723C325.848 241.409 326.027 242.255 326.027 243.263C326.027 246.142 324.751 247.847 322.593 247.847ZM322.641 243.644C323.696 243.644 324.483 242.887 324.483 241.874C324.483 240.854 323.684 240.055 322.659 240.055C321.633 240.055 320.829 240.848 320.829 241.85C320.829 242.881 321.598 243.644 322.641 243.644Z" fill="white"/>
<rect x="341.058" y="225.744" width="34.8837" height="34.8837" rx="17.4419" fill="white" fill-opacity="0.1"/>
<path d="M351.88 241.605C351.88 240.055 353.126 238.923 354.836 238.923C356.476 238.923 357.698 239.966 357.698 241.331C357.698 242.333 357.162 243.078 355.904 244.366L353.751 246.53V246.56H357.835V247.686H351.951V246.78L355.057 243.615C356.106 242.524 356.381 242.07 356.381 241.397C356.381 240.634 355.689 240.026 354.795 240.026C353.853 240.026 353.143 240.705 353.143 241.6V241.617H351.88V241.605ZM361.913 247.847C359.85 247.847 358.628 246.118 358.628 243.376C358.628 240.652 359.862 238.923 361.913 238.923C363.97 238.923 365.186 240.646 365.186 243.37C365.186 246.112 363.976 247.847 361.913 247.847ZM361.913 246.726C363.141 246.726 363.839 245.457 363.839 243.376C363.839 241.325 363.129 240.044 361.913 240.044C360.697 240.044 359.982 241.331 359.982 243.376C359.982 245.451 360.685 246.726 361.913 246.726Z" fill="white"/>
<rect x="379.43" y="225.744" width="34.8837" height="34.8837" rx="17.4419" fill="white" fill-opacity="0.1"/>
<path d="M391.265 241.605C391.265 240.055 392.511 238.923 394.222 238.923C395.862 238.923 397.084 239.966 397.084 241.331C397.084 242.333 396.547 243.078 395.289 244.366L393.137 246.53V246.56H397.221V247.686H391.337V246.78L394.443 243.615C395.492 242.524 395.766 242.07 395.766 241.397C395.766 240.634 395.075 240.026 394.181 240.026C393.239 240.026 392.529 240.705 392.529 241.6V241.617H391.265V241.605ZM400.339 247.686V240.407H400.309L398.062 242.005V240.693L400.327 239.084H401.645V247.686H400.339Z" fill="white"/>
<rect x="417.802" y="225.744" width="34.8837" height="34.8837" rx="17.4419" fill="white" fill-opacity="0.1"/>
<path d="M428.892 241.605C428.892 240.055 430.138 238.923 431.849 238.923C433.489 238.923 434.711 239.966 434.711 241.331C434.711 242.333 434.174 243.078 432.916 244.366L430.764 246.53V246.56H434.848V247.686H428.964V246.78L432.07 243.615C433.119 242.524 433.393 242.07 433.393 241.397C433.393 240.634 432.702 240.026 431.807 240.026C430.865 240.026 430.156 240.705 430.156 241.6V241.617H428.892V241.605ZM435.718 241.605C435.718 240.055 436.964 238.923 438.675 238.923C440.315 238.923 441.537 239.966 441.537 241.331C441.537 242.333 441 243.078 439.743 244.366L437.59 246.53V246.56H441.674V247.686H435.79V246.78L438.896 243.615C439.945 242.524 440.219 242.07 440.219 241.397C440.219 240.634 439.528 240.026 438.634 240.026C437.692 240.026 436.982 240.705 436.982 241.6V241.617H435.718V241.605Z" fill="white"/>
<rect x="456.174" y="225.744" width="34.8837" height="34.8837" rx="17.4419" fill="white" fill-opacity="0.1"/>
<path d="M467.103 241.605C467.103 240.055 468.349 238.923 470.06 238.923C471.699 238.923 472.922 239.966 472.922 241.331C472.922 242.333 472.385 243.078 471.127 244.366L468.975 246.53V246.56H473.059V247.686H467.175V246.78L470.281 243.615C471.33 242.524 471.604 242.07 471.604 241.397C471.604 240.634 470.913 240.026 470.018 240.026C469.076 240.026 468.367 240.705 468.367 241.6V241.617H467.103V241.605ZM475.873 243.793V242.744H476.91C477.84 242.744 478.478 242.16 478.478 241.349C478.478 240.55 477.93 240.02 476.91 240.02C475.98 240.02 475.36 240.556 475.283 241.403H474.025C474.126 239.895 475.265 238.923 476.97 238.923C478.597 238.923 479.784 239.847 479.784 241.17C479.784 242.243 479.08 243.012 478.013 243.203V243.227C479.307 243.316 480.141 244.109 480.141 245.314C480.141 246.816 478.776 247.847 476.982 247.847C475.128 247.847 473.935 246.828 473.852 245.343H475.134C475.217 246.166 475.897 246.732 476.982 246.732C478.031 246.732 478.782 246.136 478.782 245.296C478.782 244.366 478.079 243.793 476.946 243.793H475.873Z" fill="white"/>
<rect x="225.942" y="269.349" width="34.8837" height="34.8837" rx="17.4419" fill="white" fill-opacity="0.1"/>
<path d="M236.9 285.21C236.9 283.66 238.146 282.527 239.857 282.527C241.497 282.527 242.719 283.571 242.719 284.936C242.719 285.937 242.182 286.682 240.925 287.97L238.772 290.134V290.164H242.856V291.291H236.972V290.385L240.078 287.219C241.127 286.128 241.401 285.675 241.401 285.001C241.401 284.238 240.71 283.63 239.816 283.63C238.874 283.63 238.164 284.31 238.164 285.204V285.222H236.9V285.21ZM247.637 291.291V289.592H243.333V288.423C244.072 287.034 245.05 285.49 246.988 282.688H248.919V288.471H250.1V289.592H248.919V291.291H247.637ZM244.579 288.459V288.489H247.649V283.72H247.626C246.135 285.872 245.265 287.213 244.579 288.459Z" fill="white"/>
<rect x="264.314" y="269.349" width="34.8837" height="34.8837" rx="17.4419" fill="white" fill-opacity="0.1"/>
<path d="M275.278 285.21C275.278 283.66 276.524 282.527 278.235 282.527C279.875 282.527 281.097 283.571 281.097 284.936C281.097 285.937 280.56 286.682 279.303 287.97L277.15 290.134V290.164H281.234V291.291H275.35V290.385L278.456 287.219C279.505 286.128 279.779 285.675 279.779 285.001C279.779 284.238 279.088 283.63 278.194 283.63C277.252 283.63 276.542 284.31 276.542 285.204V285.222H275.278V285.21ZM285.258 291.452C283.541 291.452 282.284 290.402 282.206 288.9H283.482C283.577 289.753 284.311 290.337 285.27 290.337C286.355 290.337 287.106 289.58 287.106 288.501C287.106 287.422 286.355 286.647 285.282 286.647C284.537 286.647 283.893 286.987 283.559 287.553H282.337L282.79 282.688H287.911V283.815H283.863L283.625 286.456H283.655C284.03 285.913 284.734 285.586 285.574 285.586C287.226 285.586 288.412 286.796 288.412 288.465C288.412 290.23 287.112 291.452 285.258 291.452Z" fill="white"/>
<rect x="302.686" y="269.349" width="34.8837" height="34.8837" rx="17.4419" fill="white" fill-opacity="0.1"/>
<path d="M313.555 285.21C313.555 283.66 314.801 282.527 316.512 282.527C318.152 282.527 319.374 283.571 319.374 284.936C319.374 285.937 318.837 286.682 317.579 287.97L315.427 290.134V290.164H319.511V291.291H313.627V290.385L316.733 287.219C317.782 286.128 318.056 285.675 318.056 285.001C318.056 284.238 317.365 283.63 316.47 283.63C315.528 283.63 314.819 284.31 314.819 285.204V285.222H313.555V285.21ZM323.69 291.458C322.42 291.458 321.401 290.808 320.84 289.645C320.489 288.96 320.31 288.113 320.31 287.106C320.31 284.226 321.598 282.521 323.75 282.521C325.27 282.521 326.45 283.433 326.713 284.805H325.377C325.169 284.101 324.525 283.642 323.738 283.642C322.385 283.642 321.598 284.87 321.592 287.034H321.615C321.991 286.2 322.903 285.639 323.976 285.639C325.616 285.639 326.832 286.849 326.832 288.483C326.832 290.206 325.514 291.458 323.69 291.458ZM323.678 290.331C324.692 290.331 325.502 289.532 325.502 288.525C325.502 287.481 324.745 286.73 323.69 286.73C322.641 286.73 321.86 287.481 321.86 288.501C321.86 289.52 322.653 290.331 323.678 290.331Z" fill="white"/>
<rect x="341.058" y="269.349" width="34.8837" height="34.8837" rx="17.4419" fill="white" fill-opacity="0.1"/>
<path d="M352.285 285.21C352.285 283.66 353.531 282.527 355.242 282.527C356.881 282.527 358.103 283.571 358.103 284.936C358.103 285.937 357.567 286.682 356.309 287.97L354.157 290.134V290.164H358.241V291.291H352.356V290.385L355.462 287.219C356.512 286.128 356.786 285.675 356.786 285.001C356.786 284.238 356.094 283.63 355.2 283.63C354.258 283.63 353.549 284.31 353.549 285.204V285.222H352.285V285.21ZM359.66 291.291L363.481 283.845V283.815H358.944V282.688H364.799V283.845L361.061 291.291H359.66Z" fill="white"/>
<rect x="379.43" y="269.349" width="34.8837" height="34.8837" rx="17.4419" fill="white" fill-opacity="0.1"/>
<path d="M390.281 285.21C390.281 283.66 391.527 282.527 393.238 282.527C394.878 282.527 396.1 283.571 396.1 284.936C396.1 285.937 395.563 286.682 394.305 287.97L392.153 290.134V290.164H396.237V291.291H390.353V290.385L393.459 287.219C394.508 286.128 394.782 285.675 394.782 285.001C394.782 284.238 394.091 283.63 393.197 283.63C392.255 283.63 391.545 284.31 391.545 285.204V285.222H390.281V285.21ZM400.285 291.452C398.366 291.452 397.03 290.42 397.03 288.966C397.03 287.869 397.805 286.992 398.944 286.754V286.724C397.99 286.462 397.376 285.717 397.376 284.793C397.376 283.487 398.598 282.527 400.285 282.527C401.978 282.527 403.188 283.481 403.188 284.799C403.188 285.711 402.58 286.45 401.627 286.724V286.754C402.771 286.992 403.54 287.875 403.54 288.966C403.54 290.426 402.193 291.452 400.285 291.452ZM400.285 290.379C401.382 290.379 402.157 289.747 402.157 288.87C402.157 287.982 401.382 287.35 400.285 287.35C399.188 287.35 398.407 287.988 398.407 288.87C398.407 289.747 399.188 290.379 400.285 290.379ZM400.285 286.277C401.209 286.277 401.871 285.717 401.871 284.936C401.871 284.149 401.215 283.588 400.285 283.588C399.349 283.588 398.699 284.149 398.699 284.936C398.699 285.717 399.349 286.277 400.285 286.277Z" fill="white"/>
<rect x="417.802" y="269.349" width="34.8837" height="34.8837" rx="17.4419" fill="white" fill-opacity="0.1"/>
<path d="M428.671 285.21C428.671 283.66 429.917 282.527 431.628 282.527C433.268 282.527 434.49 283.571 434.49 284.936C434.49 285.937 433.953 286.682 432.695 287.97L430.543 290.134V290.164H434.627V291.291H428.743V290.385L431.849 287.219C432.898 286.128 433.172 285.675 433.172 285.001C433.172 284.238 432.481 283.63 431.587 283.63C430.645 283.63 429.935 284.31 429.935 285.204V285.222H428.671V285.21ZM438.455 291.452C436.922 291.452 435.736 290.534 435.48 289.168H436.821C437.024 289.872 437.68 290.343 438.472 290.343C439.814 290.343 440.601 289.103 440.601 286.933C440.601 286.933 440.595 286.933 440.589 286.933H440.583H440.577C440.231 287.779 439.325 288.34 438.216 288.34C436.583 288.34 435.361 287.13 435.361 285.496C435.361 283.773 436.684 282.521 438.502 282.521C439.778 282.521 440.803 283.171 441.358 284.328C441.71 285.013 441.888 285.86 441.888 286.867C441.888 289.747 440.613 291.452 438.455 291.452ZM438.502 287.249C439.557 287.249 440.344 286.492 440.344 285.478C440.344 284.459 439.546 283.66 438.52 283.66C437.495 283.66 436.69 284.453 436.69 285.454C436.69 286.486 437.459 287.249 438.502 287.249Z" fill="white"/>
<rect x="456.175" y="269.349" width="34.8837" height="34.8837" rx="17.4419" fill="white" fill-opacity="0.1"/>
<path d="M468.779 287.398V286.349H469.816C470.746 286.349 471.384 285.764 471.384 284.954C471.384 284.155 470.835 283.624 469.816 283.624C468.886 283.624 468.266 284.161 468.188 285.007H466.93C467.032 283.499 468.17 282.527 469.875 282.527C471.503 282.527 472.689 283.451 472.689 284.775C472.689 285.848 471.986 286.617 470.919 286.808V286.832C472.212 286.921 473.047 287.714 473.047 288.918C473.047 290.42 471.682 291.452 469.887 291.452C468.033 291.452 466.841 290.432 466.758 288.948H468.039C468.123 289.771 468.802 290.337 469.887 290.337C470.937 290.337 471.688 289.741 471.688 288.9C471.688 287.97 470.984 287.398 469.852 287.398H468.779ZM477.191 291.452C475.128 291.452 473.906 289.723 473.906 286.981C473.906 284.256 475.14 282.527 477.191 282.527C479.247 282.527 480.463 284.25 480.463 286.975C480.463 289.717 479.253 291.452 477.191 291.452ZM477.191 290.331C478.419 290.331 479.116 289.061 479.116 286.981C479.116 284.93 478.407 283.648 477.191 283.648C475.974 283.648 475.259 284.936 475.259 286.981C475.259 289.055 475.962 290.331 477.191 290.331Z" fill="white"/>
<defs>
<filter id="filter0_i_2606_16276" x="32" y="223.5" width="120" height="30" filterUnits="userSpaceOnUse" color-interpolation-filters="sRGB">
<feFlood flood-opacity="0" result="BackgroundImageFix"/>
<feBlend mode="normal" in="SourceGraphic" in2="BackgroundImageFix" result="shape"/>
<feColorMatrix in="SourceAlpha" type="matrix" values="0 0 0 0 0 0 0 0 0 0 0 0 0 0 0 0 0 0 127 0" result="hardAlpha"/>
<feOffset dy="1"/>
<feComposite in2="hardAlpha" operator="arithmetic" k2="-1" k3="1"/>
<feColorMatrix type="matrix" values="0 0 0 0 1 0 0 0 0 1 0 0 0 0 1 0 0 0 0.1 0"/>
<feBlend mode="normal" in2="shape" result="effect1_innerShadow_2606_16276"/>
</filter>
<linearGradient id="paint0_linear_2606_16276" x1="92" y1="223.5" x2="92" y2="253.5" gradientUnits="userSpaceOnUse">
<stop stop-color="white" stop-opacity="0.24"/>
<stop offset="1" stop-color="white" stop-opacity="0"/>
</linearGradient>
</defs>
</svg>
