<svg width="614" height="452" viewBox="0 0 614 452" fill="none" xmlns="http://www.w3.org/2000/svg">
<path d="M456.946 180.124L456.946 102.468C456.946 100.034 455.979 97.6997 454.258 95.9784L436.689 78.4092C434.968 76.6879 434.001 74.3534 434.001 71.9192L434.001 13.7675" stroke="url(#paint0_linear_2606_16128)" stroke-width="1.72093"/>
<path opacity="0.25" d="M492.512 0L492.512 55.3531C492.512 57.7461 491.577 60.0444 489.907 61.7583L473.318 78.7843C471.648 80.4982 470.713 82.7965 470.713 85.1895L470.713 180.124" stroke="url(#paint1_linear_2606_16128)" stroke-width="1.72093"/>
<path opacity="0.25" d="M506.279 0L506.279 107.101C506.279 109.76 505.126 112.288 503.119 114.031L487.641 127.473C485.634 129.216 484.481 131.744 484.481 134.403L484.481 180.124" stroke="url(#paint2_linear_2606_16128)" stroke-width="1.72093"/>
<path d="M127.333 180.124L127.333 102.468C127.333 100.034 128.3 97.6997 130.021 95.9784L147.59 78.4092C149.312 76.6879 150.279 74.3534 150.279 71.9192L150.279 13.7675" stroke="url(#paint3_linear_2606_16128)" stroke-width="1.72093"/>
<path opacity="0.25" d="M91.7676 0L91.7676 55.3531C91.7676 57.7461 92.7022 60.0444 94.3721 61.7583L110.962 78.7843C112.631 80.4982 113.566 82.7965 113.566 85.1895L113.566 180.124" stroke="url(#paint4_linear_2606_16128)" stroke-width="1.72093"/>
<path opacity="0.25" d="M78 0L78 107.101C78 109.76 79.1529 112.288 81.1602 114.031L96.6383 127.473C98.6456 129.216 99.7985 131.744 99.7985 134.403L99.7985 180.124" stroke="url(#paint5_linear_2606_16128)" stroke-width="1.72093"/>
<path opacity="0.25" d="M474 239.812L522.835 239.537C525.404 239.523 527.863 240.586 529.611 242.469L544.263 258.245C546.012 260.128 548.47 261.192 551.04 261.177L635.29 260.703" stroke="url(#paint6_linear_2606_16128)"/>
<path opacity="0.25" d="M474.809 225.704L523.643 225.979C526.213 225.993 528.671 224.93 530.42 223.046L545.071 207.271C546.82 205.388 549.278 204.324 551.848 204.339L636.098 204.812" stroke="url(#paint7_linear_2606_16128)"/>
<path opacity="0.25" d="M630.528 191.014L523.428 190.411C520.77 190.396 518.235 191.535 516.481 193.532L502.953 208.934C501.198 210.932 498.664 212.071 496.005 212.056L450.284 211.798" stroke="url(#paint8_linear_2606_16128)" stroke-width="1.72093"/>
<path opacity="0.25" d="M148 227.094L99.1657 227.369C96.5959 227.383 94.1377 226.32 92.3888 224.437L77.7372 208.661C75.9884 206.778 73.5302 205.714 70.9604 205.729L-13.2896 206.203" stroke="url(#paint9_linear_2606_16128)"/>
<path opacity="0.25" d="M147.191 241.202L98.3569 240.927C95.787 240.913 93.3289 241.976 91.58 243.859L76.9284 259.635C75.1796 261.518 72.7214 262.582 70.1515 262.567L-14.0984 262.093" stroke="url(#paint10_linear_2606_16128)"/>
<mask id="path-12-inside-1_2606_16128" fill="white">
<path d="M446.853 233C453.561 233 459.047 227.554 458.545 220.864C457.082 201.391 452.107 182.308 443.827 164.548C433.834 143.112 419.267 124.124 401.152 108.918C383.036 93.7125 361.811 82.6578 338.967 76.5308C320.041 71.4546 300.385 69.8628 280.953 71.7972C274.277 72.4618 269.864 78.8088 271.027 85.4161C272.189 92.0234 278.489 96.3805 285.173 95.8043C301.099 94.4314 317.174 95.8394 332.673 99.9964C352.091 105.205 370.134 114.601 385.532 127.527C400.931 140.452 413.313 156.593 421.808 174.814C428.588 189.358 432.761 204.946 434.17 220.869C434.761 227.551 440.144 233 446.853 233Z"/>
</mask>
<path d="M446.853 233C453.561 233 459.047 227.554 458.545 220.864C457.082 201.391 452.107 182.308 443.827 164.548C433.834 143.112 419.267 124.124 401.152 108.918C383.036 93.7125 361.811 82.6578 338.967 76.5308C320.041 71.4546 300.385 69.8628 280.953 71.7972C274.277 72.4618 269.864 78.8088 271.027 85.4161C272.189 92.0234 278.489 96.3805 285.173 95.8043C301.099 94.4314 317.174 95.8394 332.673 99.9964C352.091 105.205 370.134 114.601 385.532 127.527C400.931 140.452 413.313 156.593 421.808 174.814C428.588 189.358 432.761 204.946 434.17 220.869C434.761 227.551 440.144 233 446.853 233Z" stroke="#FE4A22" stroke-width="43.8072" mask="url(#path-12-inside-1_2606_16128)"/>
<mask id="path-13-inside-2_2606_16128" fill="white">
<path d="M297 83.004C297 76.3746 291.618 70.9542 285.007 71.445C265.484 72.8942 246.351 77.873 228.548 86.173C207.112 96.1668 188.124 110.733 172.918 128.849C157.712 146.964 146.657 168.19 140.53 191.033C135.442 210.006 133.855 229.712 135.811 249.191C136.474 255.787 142.745 260.148 149.274 258.999C155.803 257.85 160.109 251.625 159.531 245.021C158.131 229.007 159.537 212.839 163.718 197.253C168.937 177.794 178.353 159.714 191.306 144.283C204.258 128.852 220.432 116.444 238.692 107.932C253.317 101.113 268.997 96.9258 285.011 95.5292C291.616 94.9532 297 89.6333 297 83.004Z"/>
</mask>
<path d="M297 83.004C297 76.3746 291.618 70.9542 285.007 71.445C265.484 72.8942 246.351 77.873 228.548 86.173C207.112 96.1668 188.124 110.733 172.918 128.849C157.712 146.964 146.657 168.19 140.53 191.033C135.442 210.006 133.855 229.712 135.811 249.191C136.474 255.787 142.745 260.148 149.274 258.999C155.803 257.85 160.109 251.625 159.531 245.021C158.131 229.007 159.537 212.839 163.718 197.253C168.937 177.794 178.353 159.714 191.306 144.283C204.258 128.852 220.432 116.444 238.692 107.932C253.317 101.113 268.997 96.9258 285.011 95.5292C291.616 94.9532 297 89.6333 297 83.004Z" stroke="#6A5ED9" stroke-width="43.8072" mask="url(#path-13-inside-2_2606_16128)"/>
<mask id="path-14-inside-3_2606_16128" fill="white">
<path d="M147.913 233C140.966 233 135.283 238.641 135.823 245.567C137.239 263.729 141.717 281.553 149.097 298.275C158.173 318.84 171.438 337.286 188.045 352.435C204.651 367.585 224.235 379.104 245.544 386.259C266.854 393.414 289.421 396.046 311.805 393.987C334.189 391.929 355.898 385.225 375.545 374.304C395.192 363.383 412.346 348.484 425.911 330.56C439.476 312.636 449.154 292.08 454.327 270.205C458.533 252.418 459.686 234.076 457.766 215.96C457.034 209.051 450.417 204.542 443.586 205.809C436.755 207.076 432.306 213.641 432.939 220.56C434.281 235.222 433.244 250.033 429.843 264.415C425.475 282.886 417.304 300.243 405.85 315.378C394.396 330.512 379.911 343.092 363.322 352.314C346.732 361.535 328.402 367.196 309.501 368.934C290.6 370.672 271.545 368.45 253.552 362.408C235.559 356.367 219.023 346.64 205.001 333.848C190.978 321.057 179.778 305.481 172.114 288.117C166.147 274.596 162.427 260.223 161.072 245.562C160.433 238.644 154.861 233 147.913 233Z"/>
</mask>
<path d="M147.913 233C140.966 233 135.283 238.641 135.823 245.567C137.239 263.729 141.717 281.553 149.097 298.275C158.173 318.84 171.438 337.286 188.045 352.435C204.651 367.585 224.235 379.104 245.544 386.259C266.854 393.414 289.421 396.046 311.805 393.987C334.189 391.929 355.898 385.225 375.545 374.304C395.192 363.383 412.346 348.484 425.911 330.56C439.476 312.636 449.154 292.08 454.327 270.205C458.533 252.418 459.686 234.076 457.766 215.96C457.034 209.051 450.417 204.542 443.586 205.809C436.755 207.076 432.306 213.641 432.939 220.56C434.281 235.222 433.244 250.033 429.843 264.415C425.475 282.886 417.304 300.243 405.85 315.378C394.396 330.512 379.911 343.092 363.322 352.314C346.732 361.535 328.402 367.196 309.501 368.934C290.6 370.672 271.545 368.45 253.552 362.408C235.559 356.367 219.023 346.64 205.001 333.848C190.978 321.057 179.778 305.481 172.114 288.117C166.147 274.596 162.427 260.223 161.072 245.562C160.433 238.644 154.861 233 147.913 233Z" stroke="#1972F5" stroke-width="43.8072" mask="url(#path-14-inside-3_2606_16128)"/>
<path d="M376 236L439.399 342.806C461.76 380.478 456.998 428.319 427.649 460.843L409.46 481" stroke="url(#paint11_linear_2606_16128)"/>
<path d="M218 236L154.601 342.806C132.24 380.478 137.002 428.319 166.351 460.843L184.54 481" stroke="url(#paint12_linear_2606_16128)"/>
<rect x="117" y="193" width="360" height="80" rx="40" fill="#08102C"/>
<rect x="117.5" y="193.5" width="359" height="79" rx="39.5" stroke="white" stroke-opacity="0.1"/>
<path d="M200.625 244H191.578V221.453H200.578C204.578 221.453 207.203 223.672 207.203 227.078C207.203 229.469 205.438 231.609 203.188 231.984V232.109C206.25 232.453 208.312 234.625 208.312 237.625C208.312 241.594 205.422 244 200.625 244ZM195.078 224.312V231.047H199C202.031 231.047 203.703 229.797 203.703 227.562C203.703 225.469 202.266 224.312 199.734 224.312H195.078ZM195.078 241.141H199.906C203.062 241.141 204.734 239.844 204.734 237.406C204.734 234.969 203.016 233.719 199.703 233.719H195.078V241.141ZM211.562 244V227.562H214.781V230.359H214.859C215.406 228.438 216.874 227.297 218.812 227.297C219.296 227.297 219.718 227.375 219.968 227.422V230.562C219.702 230.453 219.109 230.375 218.452 230.375C216.281 230.375 214.937 231.828 214.937 234.156V244H211.562ZM228.108 241.609C230.468 241.609 232.311 239.984 232.311 237.844V236.547L228.264 236.797C226.249 236.938 225.108 237.828 225.108 239.234C225.108 240.672 226.296 241.609 228.108 241.609ZM227.171 244.281C223.952 244.281 221.702 242.281 221.702 239.328C221.702 236.453 223.905 234.688 227.811 234.469L232.311 234.203V232.938C232.311 231.109 231.077 230.016 229.014 230.016C227.061 230.016 225.843 230.953 225.546 232.422H222.358C222.546 229.453 225.077 227.266 229.139 227.266C233.124 227.266 235.671 229.375 235.671 232.672V244H232.436V241.297H232.358C231.405 243.125 229.327 244.281 227.171 244.281ZM239.592 244V227.562H242.811V230.312H242.889C243.779 228.438 245.529 227.281 248.061 227.281C251.686 227.281 253.764 229.594 253.764 233.359V244H250.373V234.016C250.373 231.547 249.217 230.188 246.873 230.188C244.498 230.188 242.967 231.875 242.967 234.422V244H239.592ZM263.841 244.281C259.685 244.281 256.935 240.969 256.935 235.781C256.935 230.594 259.685 227.297 263.81 227.297C266.169 227.297 268.044 228.484 268.966 230.297H269.029V221.453H272.419V244H269.138V241.203H269.076C268.107 243.078 266.232 244.281 263.841 244.281ZM264.732 230.141C262.06 230.141 260.388 232.328 260.388 235.781C260.388 239.25 262.06 241.422 264.732 241.422C267.326 241.422 269.06 239.219 269.06 235.781C269.06 232.375 267.326 230.141 264.732 230.141ZM283.074 237.719H286.527C286.777 239.953 288.949 241.422 291.918 241.422C294.762 241.422 296.809 239.953 296.809 237.938C296.809 236.188 295.574 235.141 292.652 234.422L289.731 233.719C285.59 232.719 283.668 230.781 283.668 227.641C283.668 223.75 287.059 221.078 291.871 221.078C296.637 221.078 299.902 223.75 300.012 227.641H296.606C296.402 225.391 294.543 224.031 291.824 224.031C289.106 224.031 287.246 225.406 287.246 227.406C287.246 229 288.434 229.938 291.34 230.656L293.824 231.266C298.449 232.359 300.371 234.219 300.371 237.516C300.371 241.734 297.012 244.375 291.668 244.375C286.668 244.375 283.293 241.797 283.074 237.719ZM304.73 223.672H308.121V227.562H311.246V230.234H308.121V239.297C308.121 240.719 308.746 241.359 310.121 241.359C310.464 241.359 311.011 241.328 311.23 241.281V243.953C310.855 244.047 310.105 244.109 309.355 244.109C306.027 244.109 304.73 242.844 304.73 239.672V230.234H302.339V227.562H304.73V223.672ZM314.667 244V227.562H317.886V230.359H317.964C318.511 228.438 319.979 227.297 321.917 227.297C322.401 227.297 322.823 227.375 323.073 227.422V230.562C322.808 230.453 322.214 230.375 321.558 230.375C319.386 230.375 318.042 231.828 318.042 234.156V244H314.667ZM331.213 241.609C333.572 241.609 335.416 239.984 335.416 237.844V236.547L331.369 236.797C329.354 236.938 328.213 237.828 328.213 239.234C328.213 240.672 329.401 241.609 331.213 241.609ZM330.276 244.281C327.057 244.281 324.807 242.281 324.807 239.328C324.807 236.453 327.01 234.688 330.916 234.469L335.416 234.203V232.938C335.416 231.109 334.182 230.016 332.119 230.016C330.166 230.016 328.947 230.953 328.651 232.422H325.463C325.651 229.453 328.182 227.266 332.244 227.266C336.229 227.266 338.776 229.375 338.776 232.672V244H335.541V241.297H335.463C334.51 243.125 332.432 244.281 330.276 244.281ZM343.681 223.672H347.072V227.562H350.197V230.234H347.072V239.297C347.072 240.719 347.697 241.359 349.072 241.359C349.416 241.359 349.962 241.328 350.181 241.281V243.953C349.806 244.047 349.056 244.109 348.306 244.109C344.978 244.109 343.681 242.844 343.681 239.672V230.234H341.291V227.562H343.681V223.672ZM360.087 229.984C357.727 229.984 356.071 231.781 355.899 234.266H364.118C364.04 231.75 362.446 229.984 360.087 229.984ZM364.102 239.172H367.306C366.837 242.172 363.993 244.312 360.227 244.312C355.399 244.312 352.477 241.047 352.477 235.859C352.477 230.703 355.446 227.266 360.087 227.266C364.649 227.266 367.493 230.484 367.493 235.469V236.625H355.884V236.828C355.884 239.688 357.602 241.578 360.306 241.578C362.227 241.578 363.649 240.609 364.102 239.172ZM377.758 241.266C380.399 241.266 382.133 239.125 382.133 235.734C382.133 232.359 380.399 230.141 377.758 230.141C375.164 230.141 373.477 232.312 373.477 235.734C373.477 239.172 375.164 241.266 377.758 241.266ZM377.789 250.188C373.914 250.188 371.039 248.125 370.617 245.281H374.008C374.492 246.656 375.992 247.562 377.914 247.562C380.555 247.562 382.117 246.062 382.117 243.812V241.109H382.055C381.133 242.891 379.196 244.062 376.852 244.062C372.727 244.062 370.024 240.844 370.024 235.719C370.024 230.547 372.711 227.297 376.93 227.297C379.258 227.297 381.164 228.469 382.164 230.375H382.227V227.562H385.508V243.703C385.508 247.625 382.477 250.188 377.789 250.188ZM391.117 250.125C390.851 250.125 389.992 250.094 389.742 250.047V247.312C389.992 247.375 390.554 247.375 390.836 247.375C392.414 247.375 393.242 246.719 393.758 245.031C393.758 245 394.054 244.031 394.054 244.016L388.117 227.562H391.773L395.945 240.938H395.992L400.164 227.562H403.726L397.554 244.859C396.148 248.844 394.539 250.125 391.117 250.125Z" fill="white"/>
<defs>
<linearGradient id="paint0_linear_2606_16128" x1="456.946" y1="13.7675" x2="397.586" y2="39.2073" gradientUnits="userSpaceOnUse">
<stop stop-color="#F8F8F8" stop-opacity="0"/>
<stop offset="0.45221" stop-color="#F8F8F8" stop-opacity="0.2"/>
<stop offset="1" stop-color="#F8F8F8" stop-opacity="0"/>
</linearGradient>
<linearGradient id="paint1_linear_2606_16128" x1="492.512" y1="76.2946" x2="430.744" y2="101.397" gradientUnits="userSpaceOnUse">
<stop stop-color="#F8F8F8" stop-opacity="0.8"/>
<stop offset="0.54779" stop-color="#F8F8F8" stop-opacity="0.2"/>
<stop offset="1" stop-color="#F8F8F8" stop-opacity="0"/>
</linearGradient>
<linearGradient id="paint2_linear_2606_16128" x1="506.279" y1="76.2946" x2="444.511" y2="101.397" gradientUnits="userSpaceOnUse">
<stop stop-color="#F8F8F8" stop-opacity="0"/>
<stop offset="0.54779" stop-color="#F8F8F8" stop-opacity="0.2"/>
<stop offset="1" stop-color="#F8F8F8" stop-opacity="0"/>
</linearGradient>
<linearGradient id="paint3_linear_2606_16128" x1="127.333" y1="13.7675" x2="186.693" y2="39.2073" gradientUnits="userSpaceOnUse">
<stop stop-color="#F8F8F8" stop-opacity="0"/>
<stop offset="0.45221" stop-color="#F8F8F8" stop-opacity="0.2"/>
<stop offset="1" stop-color="#F8F8F8" stop-opacity="0"/>
</linearGradient>
<linearGradient id="paint4_linear_2606_16128" x1="91.7676" y1="76.2946" x2="153.536" y2="101.397" gradientUnits="userSpaceOnUse">
<stop stop-color="#F8F8F8" stop-opacity="0.8"/>
<stop offset="0.54779" stop-color="#F8F8F8" stop-opacity="0.2"/>
<stop offset="1" stop-color="#F8F8F8" stop-opacity="0"/>
</linearGradient>
<linearGradient id="paint5_linear_2606_16128" x1="78" y1="76.2946" x2="139.768" y2="101.397" gradientUnits="userSpaceOnUse">
<stop stop-color="#F8F8F8" stop-opacity="0"/>
<stop offset="0.54779" stop-color="#F8F8F8" stop-opacity="0.2"/>
<stop offset="1" stop-color="#F8F8F8" stop-opacity="0"/>
</linearGradient>
<linearGradient id="paint6_linear_2606_16128" x1="542.265" y1="239.428" x2="569.698" y2="298.936" gradientUnits="userSpaceOnUse">
<stop stop-color="#F8F8F8" stop-opacity="0.8"/>
<stop offset="0.54779" stop-color="#F8F8F8" stop-opacity="0.2"/>
<stop offset="1" stop-color="#F8F8F8" stop-opacity="0"/>
</linearGradient>
<linearGradient id="paint7_linear_2606_16128" x1="543.074" y1="226.088" x2="570.507" y2="166.58" gradientUnits="userSpaceOnUse">
<stop stop-color="#F8F8F8" stop-opacity="0.8"/>
<stop offset="0.54779" stop-color="#F8F8F8" stop-opacity="0.2"/>
<stop offset="1" stop-color="#F8F8F8" stop-opacity="0"/>
</linearGradient>
<linearGradient id="paint8_linear_2606_16128" x1="554.235" y1="190.584" x2="528.785" y2="252.21" gradientUnits="userSpaceOnUse">
<stop stop-color="#F8F8F8" stop-opacity="0"/>
<stop offset="0.54779" stop-color="#F8F8F8" stop-opacity="0.2"/>
<stop offset="1" stop-color="#F8F8F8" stop-opacity="0"/>
</linearGradient>
<linearGradient id="paint9_linear_2606_16128" x1="79.735" y1="227.478" x2="52.302" y2="167.97" gradientUnits="userSpaceOnUse">
<stop stop-color="#F8F8F8" stop-opacity="0.8"/>
<stop offset="0.54779" stop-color="#F8F8F8" stop-opacity="0.2"/>
<stop offset="1" stop-color="#F8F8F8" stop-opacity="0"/>
</linearGradient>
<linearGradient id="paint10_linear_2606_16128" x1="78.9262" y1="240.818" x2="51.4931" y2="300.326" gradientUnits="userSpaceOnUse">
<stop stop-color="#F8F8F8" stop-opacity="0.8"/>
<stop offset="0.54779" stop-color="#F8F8F8" stop-opacity="0.2"/>
<stop offset="1" stop-color="#F8F8F8" stop-opacity="0"/>
</linearGradient>
<linearGradient id="paint11_linear_2606_16128" x1="426.5" y1="236" x2="426.5" y2="481" gradientUnits="userSpaceOnUse">
<stop stop-color="#08102C"/>
<stop offset="1" stop-color="white" stop-opacity="0"/>
</linearGradient>
<linearGradient id="paint12_linear_2606_16128" x1="167.5" y1="236" x2="167.5" y2="481" gradientUnits="userSpaceOnUse">
<stop stop-color="#08102C"/>
<stop offset="1" stop-color="white" stop-opacity="0"/>
</linearGradient>
</defs>
</svg>
