<svg width="577" height="390" viewBox="0 0 577 390" fill="none" xmlns="http://www.w3.org/2000/svg">
<circle cx="105.457" cy="40.0232" r="39.0496" fill="url(#paint0_linear_2606_16196)"/>
<circle cx="105.457" cy="40.0232" r="38.5615" stroke="white" stroke-opacity="0.1" stroke-width="0.97624"/>
<circle cx="197.224" cy="40.0232" r="39.0496" fill="url(#paint1_linear_2606_16196)"/>
<circle cx="197.224" cy="40.0232" r="38.5615" stroke="white" stroke-opacity="0.1" stroke-width="0.97624"/>
<circle cx="288.991" cy="40.0232" r="39.0496" fill="url(#paint2_linear_2606_16196)"/>
<circle cx="288.991" cy="40.0232" r="38.5615" stroke="white" stroke-opacity="0.1" stroke-width="0.97624"/>
<circle cx="380.757" cy="40.0232" r="39.0496" fill="url(#paint3_linear_2606_16196)"/>
<circle cx="380.757" cy="40.0232" r="38.5615" stroke="white" stroke-opacity="0.1" stroke-width="0.97624"/>
<circle cx="472.524" cy="40.0232" r="39.0496" fill="url(#paint4_linear_2606_16196)"/>
<circle cx="472.524" cy="40.0232" r="38.5615" stroke="white" stroke-opacity="0.1" stroke-width="0.97624"/>
<circle cx="40.0496" cy="147.41" r="39.0496" fill="url(#paint5_linear_2606_16196)"/>
<circle cx="40.0496" cy="147.41" r="38.5615" stroke="white" stroke-opacity="0.1" stroke-width="0.97624"/>
<circle cx="131.816" cy="147.41" r="39.0496" fill="url(#paint6_linear_2606_16196)"/>
<circle cx="131.816" cy="147.41" r="38.5615" stroke="white" stroke-opacity="0.1" stroke-width="0.97624"/>
<circle cx="233.345" cy="147.41" r="48.812" fill="#20C3B9"/>
<circle cx="344.636" cy="147.41" r="48.812" fill="#1972F5"/>
<circle cx="446.166" cy="147.41" r="39.0496" fill="url(#paint7_linear_2606_16196)"/>
<circle cx="446.166" cy="147.41" r="38.5615" stroke="white" stroke-opacity="0.1" stroke-width="0.97624"/>
<circle cx="537.932" cy="147.41" r="39.0496" fill="url(#paint8_linear_2606_16196)"/>
<circle cx="537.932" cy="147.41" r="38.5615" stroke="white" stroke-opacity="0.1" stroke-width="0.97624"/>
<g clip-path="url(#clip0_2606_16196)">
<path fill-rule="evenodd" clip-rule="evenodd" d="M227.209 127.901C225.006 127.901 222.894 128.776 221.336 130.334L213.82 137.849V141.29C213.82 143.72 214.864 145.907 216.528 147.426C214.864 148.945 213.82 151.131 213.82 153.562V157.002L221.336 164.518C222.894 166.075 225.006 166.95 227.209 166.95C229.64 166.95 231.826 165.906 233.345 164.242C234.864 165.906 237.051 166.95 239.481 166.95C241.684 166.95 243.796 166.075 245.354 164.518L252.87 157.002V153.562C252.87 151.131 251.826 148.945 250.162 147.426C251.826 145.907 252.87 143.72 252.87 141.29V137.849L245.354 130.334C243.796 128.776 241.684 127.901 239.481 127.901C237.051 127.901 234.864 128.945 233.345 130.609C231.826 128.945 229.64 127.901 227.209 127.901ZM238.967 147.426C238.873 147.34 238.782 147.252 238.692 147.162L233.345 141.816L227.999 147.162C227.909 147.252 227.817 147.34 227.723 147.426C227.817 147.511 227.909 147.599 227.999 147.689L233.345 153.035L238.692 147.689C238.782 147.599 238.873 147.511 238.967 147.426ZM235.515 157.002V158.645C235.515 160.836 237.29 162.612 239.481 162.612C240.533 162.612 241.542 162.194 242.286 161.45L248.531 155.205V153.562C248.531 151.371 246.755 149.595 244.564 149.595C243.512 149.595 242.504 150.013 241.76 150.757L235.515 157.002ZM231.176 157.002L224.931 150.757C224.187 150.013 223.178 149.595 222.126 149.595C219.935 149.595 218.159 151.371 218.159 153.562V155.205L224.404 161.45C225.148 162.194 226.157 162.612 227.209 162.612C229.4 162.612 231.176 160.836 231.176 158.645V157.002ZM231.176 136.206V137.849L224.931 144.094C224.187 144.838 223.178 145.256 222.126 145.256C219.935 145.256 218.159 143.48 218.159 141.29V139.647L224.404 133.402C225.148 132.658 226.157 132.24 227.209 132.24C229.4 132.24 231.176 134.016 231.176 136.206ZM241.76 144.094L235.515 137.849V136.206C235.515 134.016 237.29 132.24 239.481 132.24C240.533 132.24 241.542 132.658 242.286 133.402L248.531 139.647V141.29C248.531 143.48 246.755 145.256 244.564 145.256C243.512 145.256 242.504 144.838 241.76 144.094Z" fill="white"/>
</g>
<circle cx="76.1697" cy="264.559" r="39.0496" fill="url(#paint9_linear_2606_16196)"/>
<circle cx="76.1697" cy="264.559" r="38.5615" stroke="white" stroke-opacity="0.1" stroke-width="0.97624"/>
<circle cx="177.699" cy="264.559" r="48.812" fill="#7220C3"/>
<circle cx="288.991" cy="264.559" r="48.812" fill="url(#paint10_linear_2606_16196)"/>
<circle cx="288.991" cy="264.559" r="48.3239" stroke="white" stroke-opacity="0.1" stroke-width="0.97624"/>
<circle cx="400.282" cy="264.559" r="48.812" fill="#C919F5"/>
<circle cx="501.811" cy="264.559" r="39.0496" fill="url(#paint11_linear_2606_16196)"/>
<circle cx="501.811" cy="264.559" r="38.5615" stroke="white" stroke-opacity="0.1" stroke-width="0.97624"/>
<g clip-path="url(#clip1_2606_16196)">
<path fill-rule="evenodd" clip-rule="evenodd" d="M183.123 256.442C181.517 255.369 179.63 254.796 177.699 254.796V245.034C181.561 245.034 185.336 246.179 188.547 248.324C191.757 250.47 194.26 253.519 195.738 257.087C197.215 260.655 197.602 264.58 196.849 268.368C196.095 272.155 194.236 275.634 191.505 278.365C188.775 281.095 185.296 282.955 181.508 283.708C177.721 284.462 173.795 284.075 170.227 282.597C166.66 281.119 163.61 278.617 161.465 275.406C159.319 272.195 158.174 268.42 158.174 264.559H167.937C167.937 266.49 168.509 268.377 169.582 269.982C170.655 271.588 172.179 272.839 173.963 273.578C175.747 274.317 177.71 274.51 179.604 274.134C181.497 273.757 183.237 272.827 184.602 271.462C185.967 270.096 186.897 268.357 187.274 266.463C187.651 264.57 187.457 262.607 186.718 260.823C185.979 259.039 184.728 257.514 183.123 256.442Z" fill="white"/>
<path fill-rule="evenodd" clip-rule="evenodd" d="M167.937 245.034C167.937 246.316 167.684 247.585 167.194 248.77C166.703 249.954 165.984 251.03 165.077 251.937C164.171 252.844 163.095 253.563 161.91 254.053C160.726 254.544 159.456 254.796 158.174 254.796L158.174 264.559C160.738 264.559 163.277 264.054 165.646 263.073C168.015 262.091 170.167 260.653 171.98 258.84C173.793 257.027 175.232 254.875 176.213 252.506C177.194 250.137 177.699 247.598 177.699 245.034L167.937 245.034Z" fill="white"/>
</g>
<g clip-path="url(#clip2_2606_16196)">
<path fill-rule="evenodd" clip-rule="evenodd" d="M405.163 276.762C406.445 276.762 407.715 276.509 408.899 276.019C410.084 275.528 411.16 274.809 412.066 273.903C412.973 272.996 413.692 271.92 414.183 270.735C414.673 269.551 414.926 268.281 414.926 266.999C414.926 263.116 413.383 259.391 410.637 256.645C407.89 253.899 404.166 252.356 400.282 252.356C396.398 252.356 392.674 253.899 389.927 256.645C387.181 259.391 385.638 263.116 385.638 266.999C385.638 268.281 385.891 269.551 386.382 270.735C386.872 271.92 387.591 272.996 388.498 273.903C389.404 274.809 390.48 275.528 391.665 276.019C392.849 276.509 394.119 276.762 395.401 276.762H405.163ZM400.282 256.261C397.434 256.261 394.703 257.392 392.689 259.406C390.675 261.42 389.543 264.151 389.543 266.999C389.543 267.769 389.695 268.53 389.989 269.241C390.284 269.952 390.715 270.597 391.259 271.141C391.803 271.685 392.449 272.117 393.159 272.411C393.87 272.705 394.632 272.857 395.401 272.857H405.163C405.932 272.857 406.694 272.705 407.405 272.411C408.115 272.117 408.761 271.685 409.305 271.141C409.849 270.597 410.28 269.952 410.575 269.241C410.869 268.53 411.021 267.769 411.021 266.999C411.021 264.151 409.889 261.42 407.875 259.406C405.862 257.392 403.13 256.261 400.282 256.261Z" fill="white"/>
<path fill-rule="evenodd" clip-rule="evenodd" d="M393.448 281.643C391.782 281.643 390.132 281.264 388.592 280.528C387.052 279.792 385.653 278.714 384.474 277.354C383.296 275.994 382.361 274.38 381.723 272.603C381.086 270.826 380.757 268.922 380.757 266.999C380.757 261.821 382.814 256.855 386.476 253.193C390.138 249.531 395.104 247.474 400.282 247.474C405.46 247.474 410.427 249.531 414.088 253.193C417.75 256.855 419.807 261.821 419.807 266.999C419.807 268.922 419.479 270.826 418.841 272.603C418.203 274.38 417.268 275.994 416.09 277.354C414.911 278.714 413.512 279.792 411.973 280.528C410.433 281.264 408.782 281.643 407.116 281.643H393.448ZM389.237 255.954C392.167 253.025 396.139 251.379 400.282 251.379C404.425 251.379 408.398 253.025 411.327 255.954C414.256 258.884 415.902 262.856 415.902 266.999C415.902 268.481 415.649 269.938 415.166 271.284C414.683 272.629 413.986 273.819 413.139 274.796C412.292 275.773 411.318 276.513 410.289 277.005C409.262 277.496 408.185 277.738 407.116 277.738H393.448C392.379 277.738 391.303 277.496 390.276 277.005C389.246 276.513 388.272 275.773 387.425 274.796C386.578 273.819 385.882 272.629 385.399 271.284C384.916 269.938 384.662 268.481 384.662 266.999C384.662 262.856 386.308 258.884 389.237 255.954Z" fill="white"/>
<path d="M405.163 271.881H400.278C399.95 271.88 399.624 271.847 399.306 271.782C398.689 271.656 398.099 271.411 397.57 271.058C396.767 270.522 396.142 269.759 395.772 268.867C395.653 268.578 395.561 268.279 395.499 267.976C395.37 267.342 395.367 266.687 395.495 266.047C395.683 265.1 396.148 264.23 396.83 263.548C397.513 262.865 398.383 262.4 399.33 262.212C399.359 262.206 399.389 262.2 399.419 262.195C399.705 262.144 399.994 262.118 400.282 262.118C400.92 262.118 401.555 262.243 402.15 262.49C403.042 262.859 403.804 263.485 404.34 264.287C404.877 265.09 405.163 266.034 405.163 266.999H401.258C401.258 266.806 401.201 266.618 401.094 266.457C400.986 266.296 400.834 266.171 400.656 266.097C400.477 266.023 400.281 266.004 400.091 266.042C399.902 266.08 399.728 266.172 399.592 266.309C399.455 266.446 399.362 266.619 399.324 266.809C399.287 266.998 399.306 267.195 399.38 267.373C399.454 267.551 399.579 267.704 399.74 267.811C399.9 267.918 400.089 267.976 400.282 267.976H405.163C405.291 267.976 405.418 267.95 405.537 267.901C405.655 267.852 405.763 267.78 405.853 267.69C405.944 267.599 406.016 267.491 406.065 267.373C406.114 267.255 406.139 267.128 406.139 266.999C406.139 265.446 405.522 263.956 404.424 262.858C403.325 261.759 401.835 261.142 400.282 261.142C400.113 261.142 399.946 261.149 399.779 261.163C399.37 261.199 398.967 261.277 398.578 261.395C398.196 261.511 397.826 261.667 397.475 261.858C397.072 262.078 396.695 262.346 396.351 262.657C396.279 262.722 396.209 262.789 396.14 262.858C395.66 263.338 395.271 263.894 394.986 264.497C394.844 264.798 394.727 265.111 394.638 265.433C394.536 265.801 394.469 266.18 394.441 266.564C394.43 266.709 394.424 266.854 394.424 266.999C394.424 267.765 394.575 268.527 394.87 269.241C395.314 270.311 396.064 271.226 397.028 271.87C397.033 271.873 397.039 271.877 397.044 271.881H395.401C394.76 271.881 394.125 271.754 393.533 271.509C392.941 271.264 392.403 270.904 391.949 270.451C391.496 269.998 391.136 269.459 390.891 268.867C390.646 268.275 390.52 267.64 390.52 266.999C390.52 264.41 391.548 261.927 393.379 260.096C395.21 258.266 397.693 257.237 400.282 257.237C402.871 257.237 405.354 258.266 407.185 260.096C409.016 261.927 410.044 264.41 410.044 266.999C410.044 267.64 409.918 268.275 409.673 268.867C409.427 269.459 409.068 269.998 408.615 270.451C408.161 270.904 407.623 271.264 407.031 271.509C406.439 271.754 405.804 271.881 405.163 271.881Z" fill="white"/>
</g>
<circle cx="105.457" cy="371.945" r="39.0496" fill="url(#paint12_linear_2606_16196)"/>
<circle cx="105.457" cy="371.945" r="38.5615" stroke="white" stroke-opacity="0.1" stroke-width="0.97624"/>
<circle cx="197.224" cy="371.945" r="39.0496" fill="url(#paint13_linear_2606_16196)"/>
<circle cx="197.224" cy="371.945" r="38.5615" stroke="white" stroke-opacity="0.1" stroke-width="0.97624"/>
<circle cx="288.991" cy="371.945" r="39.0496" fill="url(#paint14_linear_2606_16196)"/>
<circle cx="288.991" cy="371.945" r="38.5615" stroke="white" stroke-opacity="0.1" stroke-width="0.97624"/>
<circle cx="380.757" cy="371.945" r="39.0496" fill="url(#paint15_linear_2606_16196)"/>
<circle cx="380.757" cy="371.945" r="38.5615" stroke="white" stroke-opacity="0.1" stroke-width="0.97624"/>
<circle cx="472.524" cy="371.945" r="39.0496" fill="url(#paint16_linear_2606_16196)"/>
<circle cx="472.524" cy="371.945" r="38.5615" stroke="white" stroke-opacity="0.1" stroke-width="0.97624"/>
<path d="M336.338 130.814H356.919L341.788 153.241H321.207L336.338 130.814Z" fill="white"/>
<path d="M337.239 155.319L331.378 164.006H352.935L368.066 141.579H352.156L342.885 155.319H337.239Z" fill="white"/>
<rect x="0.914062" y="314" width="576" height="97" fill="url(#paint17_linear_2606_16196)"/>
<rect x="576.914" y="98" width="576" height="97" transform="rotate(180 576.914 98)" fill="url(#paint18_linear_2606_16196)"/>
<rect x="477.914" y="411" width="410" height="98" transform="rotate(-90 477.914 411)" fill="url(#paint19_linear_2606_16196)"/>
<rect x="98.9141" y="1" width="410" height="98" transform="rotate(90 98.9141 1)" fill="url(#paint20_linear_2606_16196)"/>
<defs>
<linearGradient id="paint0_linear_2606_16196" x1="105.457" y1="0.973633" x2="105.457" y2="79.0729" gradientUnits="userSpaceOnUse">
<stop stop-color="#030818"/>
<stop offset="1" stop-color="#030818" stop-opacity="0"/>
</linearGradient>
<linearGradient id="paint1_linear_2606_16196" x1="197.224" y1="0.973633" x2="197.224" y2="79.0729" gradientUnits="userSpaceOnUse">
<stop stop-color="#030818"/>
<stop offset="1" stop-color="#030818" stop-opacity="0"/>
</linearGradient>
<linearGradient id="paint2_linear_2606_16196" x1="288.991" y1="0.973633" x2="288.991" y2="79.0729" gradientUnits="userSpaceOnUse">
<stop stop-color="#030818"/>
<stop offset="1" stop-color="#030818" stop-opacity="0"/>
</linearGradient>
<linearGradient id="paint3_linear_2606_16196" x1="380.757" y1="0.973633" x2="380.757" y2="79.0729" gradientUnits="userSpaceOnUse">
<stop stop-color="#030818"/>
<stop offset="1" stop-color="#030818" stop-opacity="0"/>
</linearGradient>
<linearGradient id="paint4_linear_2606_16196" x1="472.524" y1="0.973633" x2="472.524" y2="79.0729" gradientUnits="userSpaceOnUse">
<stop stop-color="#030818"/>
<stop offset="1" stop-color="#030818" stop-opacity="0"/>
</linearGradient>
<linearGradient id="paint5_linear_2606_16196" x1="40.0496" y1="108.36" x2="40.0496" y2="186.46" gradientUnits="userSpaceOnUse">
<stop stop-color="#030818"/>
<stop offset="1" stop-color="#030818" stop-opacity="0"/>
</linearGradient>
<linearGradient id="paint6_linear_2606_16196" x1="131.816" y1="108.36" x2="131.816" y2="186.46" gradientUnits="userSpaceOnUse">
<stop stop-color="#030818"/>
<stop offset="1" stop-color="#030818" stop-opacity="0"/>
</linearGradient>
<linearGradient id="paint7_linear_2606_16196" x1="446.166" y1="108.36" x2="446.166" y2="186.46" gradientUnits="userSpaceOnUse">
<stop stop-color="#030818"/>
<stop offset="1" stop-color="#030818" stop-opacity="0"/>
</linearGradient>
<linearGradient id="paint8_linear_2606_16196" x1="537.932" y1="108.36" x2="537.932" y2="186.46" gradientUnits="userSpaceOnUse">
<stop stop-color="#030818"/>
<stop offset="1" stop-color="#030818" stop-opacity="0"/>
</linearGradient>
<linearGradient id="paint9_linear_2606_16196" x1="76.1697" y1="225.509" x2="76.1697" y2="303.608" gradientUnits="userSpaceOnUse">
<stop stop-color="#030818"/>
<stop offset="1" stop-color="#030818" stop-opacity="0"/>
</linearGradient>
<linearGradient id="paint10_linear_2606_16196" x1="288.991" y1="215.747" x2="288.991" y2="313.371" gradientUnits="userSpaceOnUse">
<stop stop-color="#030818"/>
<stop offset="1" stop-color="#030818" stop-opacity="0"/>
</linearGradient>
<linearGradient id="paint11_linear_2606_16196" x1="501.811" y1="225.509" x2="501.811" y2="303.608" gradientUnits="userSpaceOnUse">
<stop stop-color="#030818"/>
<stop offset="1" stop-color="#030818" stop-opacity="0"/>
</linearGradient>
<linearGradient id="paint12_linear_2606_16196" x1="105.457" y1="332.896" x2="105.457" y2="410.995" gradientUnits="userSpaceOnUse">
<stop stop-color="#030818"/>
<stop offset="1" stop-color="#030818" stop-opacity="0"/>
</linearGradient>
<linearGradient id="paint13_linear_2606_16196" x1="197.224" y1="332.896" x2="197.224" y2="410.995" gradientUnits="userSpaceOnUse">
<stop stop-color="#030818"/>
<stop offset="1" stop-color="#030818" stop-opacity="0"/>
</linearGradient>
<linearGradient id="paint14_linear_2606_16196" x1="288.991" y1="332.896" x2="288.991" y2="410.995" gradientUnits="userSpaceOnUse">
<stop stop-color="#030818"/>
<stop offset="1" stop-color="#030818" stop-opacity="0"/>
</linearGradient>
<linearGradient id="paint15_linear_2606_16196" x1="380.757" y1="332.896" x2="380.757" y2="410.995" gradientUnits="userSpaceOnUse">
<stop stop-color="#030818"/>
<stop offset="1" stop-color="#030818" stop-opacity="0"/>
</linearGradient>
<linearGradient id="paint16_linear_2606_16196" x1="472.524" y1="332.896" x2="472.524" y2="410.995" gradientUnits="userSpaceOnUse">
<stop stop-color="#030818"/>
<stop offset="1" stop-color="#030818" stop-opacity="0"/>
</linearGradient>
<linearGradient id="paint17_linear_2606_16196" x1="288.914" y1="314" x2="288.914" y2="411" gradientUnits="userSpaceOnUse">
<stop stop-color="#030818" stop-opacity="0"/>
<stop offset="0.5" stop-color="#030818" stop-opacity="0.9"/>
<stop offset="1" stop-color="#030818"/>
</linearGradient>
<linearGradient id="paint18_linear_2606_16196" x1="864.914" y1="98" x2="864.914" y2="195" gradientUnits="userSpaceOnUse">
<stop stop-color="#030818" stop-opacity="0"/>
<stop offset="0.5" stop-color="#030818" stop-opacity="0.9"/>
<stop offset="1" stop-color="#030818"/>
</linearGradient>
<linearGradient id="paint19_linear_2606_16196" x1="682.914" y1="411" x2="682.914" y2="509" gradientUnits="userSpaceOnUse">
<stop stop-color="#030818" stop-opacity="0"/>
<stop offset="0.5" stop-color="#030818" stop-opacity="0.9"/>
<stop offset="1" stop-color="#030818"/>
</linearGradient>
<linearGradient id="paint20_linear_2606_16196" x1="303.914" y1="1" x2="303.914" y2="99" gradientUnits="userSpaceOnUse">
<stop stop-color="#030818" stop-opacity="0"/>
<stop offset="0.5" stop-color="#030818" stop-opacity="0.9"/>
<stop offset="1" stop-color="#030818"/>
</linearGradient>
<clipPath id="clip0_2606_16196">
<rect width="39.0496" height="40.0259" fill="white" transform="translate(213.82 127.397)"/>
</clipPath>
<clipPath id="clip1_2606_16196">
<rect width="39.0496" height="39.0496" fill="white" transform="translate(158.174 245.034)"/>
</clipPath>
<clipPath id="clip2_2606_16196">
<rect width="39.0496" height="34.1684" fill="white" transform="translate(380.757 247.474)"/>
</clipPath>
</defs>
</svg>
