<svg width="248" height="88" viewBox="0 0 248 88" fill="none" xmlns="http://www.w3.org/2000/svg">
<rect x="0.5" width="247" height="88" rx="44" fill="url(#paint0_linear_2824_16188)"/>
<rect x="1" y="0.5" width="246" height="87" rx="43.5" stroke="white" stroke-opacity="0.1"/>
<rect x="4.5" y="4" width="80" height="80" rx="40" fill="#040E29"/>
<rect x="5" y="4.5" width="79" height="79" rx="39.5" stroke="white" stroke-opacity="0.1"/>
<path d="M39.6867 56L32.5 48.8133C32.5 50.2667 32.5533 51.6133 32.7667 52.84C32.9667 54.0667 33.1667 54.8 33.4467 55.0533C33.7 55.3333 34.42 55.5333 35.6333 55.7467C36.8467 55.96 38.1933 56 39.6867 56ZM49.1667 41.1867L41.6867 48.6667L39.8333 46.8133L47.3133 39.3333L49.1667 41.1867ZM32.8867 45.44L43.06 55.6133C46.7667 54.9467 49.7 53.5333 51.8733 51.3733C54.0333 49.2 55.4467 46.2667 56.1133 42.56L45.94 32.3867C42.2333 33.0533 39.3 34.4667 37.1267 36.6267C34.9533 38.7867 33.5533 41.7333 32.8867 45.44ZM49.3133 32L56.5 39.1867C56.5 37.7333 56.4467 36.3867 56.2467 35.16C56.0333 33.9333 55.8333 33.2 55.5533 32.9467C55.3 32.6667 54.58 32.4667 53.3667 32.2667C52.1533 32.0667 50.8067 32 49.3133 32Z" fill="white"/>
<path d="M105.594 48.5781H110.141C110.359 50.4375 112.297 51.6562 114.797 51.6562C117.312 51.6562 119.031 50.4531 119.031 48.7969C119.031 47.3281 117.953 46.5156 115.234 45.9062L112.297 45.2656C108.141 44.375 106.094 42.2656 106.094 38.9688C106.094 34.8125 109.688 32.0625 114.719 32.0625C119.969 32.0625 123.266 34.7656 123.344 38.8438H118.922C118.766 36.9375 117.094 35.7812 114.734 35.7812C112.406 35.7812 110.844 36.8906 110.844 38.5625C110.844 39.9531 111.938 40.7344 114.531 41.3281L117.266 41.9062C121.781 42.875 123.75 44.8125 123.75 48.25C123.75 52.625 120.203 55.3906 114.609 55.3906C109.188 55.3906 105.734 52.8125 105.594 48.5781ZM133.953 55.3594C128.891 55.3594 125.656 52.1094 125.656 46.6094C125.656 41.1875 128.938 37.8906 133.953 37.8906C138.969 37.8906 142.25 41.1719 142.25 46.6094C142.25 52.125 139.016 55.3594 133.953 55.3594ZM133.953 51.875C136.188 51.875 137.609 49.9844 137.609 46.625C137.609 43.2969 136.172 41.375 133.953 41.375C131.734 41.375 130.281 43.2969 130.281 46.625C130.281 49.9844 131.703 51.875 133.953 51.875ZM159.828 44.4844H155.594C155.328 42.7188 154.156 41.4688 152.281 41.4688C150.031 41.4688 148.625 43.375 148.625 46.6094C148.625 49.9062 150.031 51.7812 152.297 51.7812C154.125 51.7812 155.312 50.6875 155.594 48.8594H159.844C159.609 52.8125 156.656 55.3594 152.25 55.3594C147.203 55.3594 144 52.0781 144 46.6094C144 41.2344 147.203 37.8906 152.219 37.8906C156.75 37.8906 159.625 40.6875 159.828 44.4844ZM177.266 44.4844H173.031C172.766 42.7188 171.594 41.4688 169.719 41.4688C167.469 41.4688 166.062 43.375 166.062 46.6094C166.062 49.9062 167.469 51.7812 169.734 51.7812C171.562 51.7812 172.75 50.6875 173.031 48.8594H177.281C177.047 52.8125 174.094 55.3594 169.688 55.3594C164.641 55.3594 161.438 52.0781 161.438 46.6094C161.438 41.2344 164.641 37.8906 169.656 37.8906C174.188 37.8906 177.062 40.6875 177.266 44.4844ZM187 41.2656C185 41.2656 183.562 42.7812 183.406 44.875H190.516C190.422 42.7344 189.031 41.2656 187 41.2656ZM190.578 49.875H194.766C194.266 53.1562 191.266 55.3594 187.125 55.3594C181.969 55.3594 178.875 52.0625 178.875 46.7031C178.875 41.3594 182 37.8906 186.953 37.8906C191.828 37.8906 194.906 41.1875 194.906 46.2812V47.6719H183.359V47.9531C183.359 50.3438 184.875 51.9844 187.203 51.9844C188.875 51.9844 190.156 51.1562 190.578 49.875ZM197.266 55V38.25H201.672V41.2656H201.766C202.359 39.1406 203.781 37.9844 205.75 37.9844C206.281 37.9844 206.734 38.0625 207.047 38.1562V42.1719C206.672 42.0156 206.047 41.9062 205.391 41.9062C203.141 41.9062 201.828 43.2812 201.828 45.6406V55H197.266Z" fill="white"/>
<defs>
<linearGradient id="paint0_linear_2824_16188" x1="124" y1="0" x2="124" y2="88" gradientUnits="userSpaceOnUse">
<stop stop-color="#040B20"/>
<stop offset="1" stop-color="#030818"/>
</linearGradient>
</defs>
</svg>
