<svg xmlns="http://www.w3.org/2000/svg" width="32" height="32" viewBox="0 0 32 32" fill="none">
  <path d="M4.95419 11.0459H0.9375C0.41975 11.0459 0 11.4656 0 11.9834V22.0251C0 22.5428 0.41975 22.9626 0.9375 22.9626H4.95419C5.47194 22.9626 5.89169 22.5428 5.89169 22.0251V11.9834C5.89169 11.4656 5.47194 11.0459 4.95419 11.0459Z" fill="white"/>
  <path d="M22.5272 21.8916C23.045 21.8916 23.4647 21.4718 23.4647 20.9541V18.8791H23.5313C24.0491 18.8791 24.4689 18.4593 24.4689 17.9416C24.4689 17.4238 24.0491 17.0041 23.5313 17.0041H23.4647V11.9166C23.4647 11.5374 23.2363 11.1956 22.886 11.0504C22.5358 10.9053 22.1326 10.9854 21.8644 11.2536C21.8644 11.2536 18.9373 14.1796 17.5496 15.5664C16.9263 16.1931 16.5688 17.0588 16.5688 17.9416C16.5688 18.4593 16.9886 18.8791 17.5063 18.8791H21.5897V20.9541C21.5897 21.4718 22.0094 21.8916 22.5272 21.8916ZM18.7754 17.0041C18.8073 16.9646 18.8412 16.9267 18.877 16.8906C19.5792 16.1889 20.6773 15.0913 21.5897 14.1793V17.0041H18.7754Z" fill="white"/>
  <path d="M14.9292 20.954C14.9292 20.4363 14.5094 20.0165 13.9917 20.0165H10.24C10.2718 19.977 10.3057 19.9391 10.3415 19.9031C11.7273 18.5183 14.6545 15.592 14.6545 15.592C14.8304 15.4162 14.9293 15.1777 14.9293 14.929V14.4269C14.9293 12.5258 13.3826 10.979 11.4814 10.979C9.56214 10.979 8.03345 12.5336 8.03345 14.4259V14.4269C8.03345 14.9446 8.4532 15.3639 8.97095 15.3639C9.4887 15.3639 9.90845 14.9436 9.90845 14.4259C9.90845 13.5658 10.6009 12.854 11.4814 12.854C12.3487 12.854 13.0543 13.5596 13.0543 14.4269V14.5406C12.2941 15.3005 10.144 17.4498 9.01414 18.5789C8.39082 19.2056 8.03345 20.0713 8.03345 20.954C8.03345 21.4718 8.4532 21.8915 8.97095 21.8915H13.9918C14.5094 21.8915 14.9292 21.4718 14.9292 20.954Z" fill="white"/>
  <path d="M16 1.875C20.7053 1.875 24.6701 5.10675 25.7913 9.46719C26.1692 9.27794 26.5951 9.17082 27.0458 9.17082H27.6492C26.3803 3.91575 21.6391 0 16 0C10.3608 0 5.61964 3.91575 4.35083 9.17082H4.95414C5.40483 9.17082 5.83071 9.27794 6.20871 9.46719C7.32983 5.10675 11.2946 1.875 16 1.875Z" fill="white"/>
  <path d="M25.608 24.4409C24.6708 26.6014 22.5174 28.1165 20.0165 28.1165H18.7918C18.3993 26.9506 17.2964 26.1082 15.9998 26.1082C14.3755 26.1082 13.054 27.4297 13.054 29.054C13.054 30.6784 14.3755 31.9999 15.9998 31.9999C17.2963 31.9999 18.3992 31.1575 18.7918 29.9915H20.0164C23.4196 29.9915 26.3307 27.8464 27.4699 24.8374H27.0456C26.5206 24.8374 26.029 24.6924 25.608 24.4409Z" fill="white"/>
  <path d="M31.0628 11.0459H27.0461C26.5284 11.0459 26.1086 11.4656 26.1086 11.9834V22.0251C26.1086 22.5428 26.5284 22.9626 27.0461 22.9626H31.0628C31.5806 22.9626 32.0003 22.5428 32.0003 22.0251V11.9834C32.0003 11.4656 31.5806 11.0459 31.0628 11.0459Z" fill="white"/>
</svg>