<svg width="78" height="78" viewBox="0 0 78 78" fill="none" xmlns="http://www.w3.org/2000/svg">
<rect width="78" height="78" rx="24" fill="#00C43E"/>
<path d="M49.6665 27H33.6665C32.1937 27 30.9998 28.1939 30.9998 29.6667V33.6667C30.9998 34.403 30.4029 35 29.6665 35C27.4574 35 25.6665 36.7909 25.6665 39C25.6665 41.2091 27.4574 43 29.6665 43C30.4029 43 30.9998 43.597 30.9998 44.3333V48.3333C30.9998 49.8061 32.1937 51 33.6665 51H36.3332C37.0696 51 37.6665 50.403 37.6665 49.6667C37.6665 47.4575 39.4574 45.6667 41.6665 45.6667C43.8756 45.6667 45.6665 47.4575 45.6665 49.6667C45.6665 50.403 46.2635 51 46.9998 51H49.6665C51.1393 51 52.3332 49.8061 52.3332 48.3333V44.3333C52.3332 43.597 51.7362 43 50.9998 43C48.7907 43 46.9998 41.2091 46.9998 39C46.9998 36.7909 48.7907 35 50.9998 35C51.7362 35 52.3332 34.403 52.3332 33.6667V29.6667C52.3332 28.1939 51.1393 27 49.6665 27Z" fill="white"/>
</svg>
