<svg width="78" height="78" viewBox="0 0 78 78" fill="none" xmlns="http://www.w3.org/2000/svg">
<rect width="78" height="78" rx="24" fill="white"/>
<path fill-rule="evenodd" clip-rule="evenodd" d="M28.3332 25.6666C26.8604 25.6666 25.6665 26.8605 25.6665 28.3333V31C25.6665 32.4727 26.8604 33.6666 28.3332 33.6666H28.6665V44.3333H28.3332C26.8604 44.3333 25.6665 45.5272 25.6665 47V49.6666C25.6665 51.1394 26.8604 52.3333 28.3332 52.3333H30.9998C32.4726 52.3333 33.6665 51.1394 33.6665 49.6666V49.3333H44.3332V49.6666C44.3332 51.1394 45.5271 52.3333 46.9998 52.3333H49.6665C51.1393 52.3333 52.3332 51.1394 52.3332 49.6666V47C52.3332 45.5272 51.1393 44.3333 49.6665 44.3333H49.3332V33.6666H49.6665C51.1393 33.6666 52.3332 32.4727 52.3332 31V28.3333C52.3332 26.8605 51.1393 25.6666 49.6665 25.6666H46.9998C45.5271 25.6666 44.3332 26.8605 44.3332 28.3333V28.6666L33.6665 28.6666V28.3333C33.6665 26.8605 32.4726 25.6666 30.9998 25.6666H28.3332ZM33.6665 30.6666V31C33.6665 32.4727 32.4726 33.6666 30.9998 33.6666H30.6665V44.3333H30.9998C32.4726 44.3333 33.6665 45.5272 33.6665 47V47.3333H44.3332V47C44.3332 45.5272 45.5271 44.3333 46.9998 44.3333H47.3332V33.6666H46.9998C45.5271 33.6666 44.3332 32.4727 44.3332 31V30.6666L33.6665 30.6666Z" fill="#28303F"/>
</svg>
