<svg width="209" height="88" viewBox="0 0 209 88" fill="none" xmlns="http://www.w3.org/2000/svg">
<rect x="0.5" width="208" height="88" rx="44" fill="url(#paint0_linear_2824_16198)"/>
<rect x="1" y="0.5" width="207" height="87" rx="43.5" stroke="white" stroke-opacity="0.1"/>
<rect x="4.5" y="4" width="80" height="80" rx="40" fill="#040E29"/>
<rect x="5" y="4.5" width="79" height="79" rx="39.5" stroke="white" stroke-opacity="0.1"/>
<g clip-path="url(#clip0_2824_16198)">
<path d="M36.9107 38.4575H40.64C40.64 38.4575 38.16 47.3095 38.0387 47.7882C37.8027 48.7082 37.568 49.5429 35.3147 49.5429C32.5987 49.5429 31.0214 49.5335 30.2787 49.5429C29.348 49.5522 28.2507 48.6989 28.5507 47.5909L31.0974 38.4575H34.9C34.9 38.4575 32.7667 46.0709 32.7214 46.2669C32.6827 46.4642 32.468 47.0095 33.652 47.0189C34.5054 47.0375 34.572 46.8122 34.7227 46.2669C35.08 45.0375 36.9107 38.4575 36.9107 38.4575ZM50.6067 38.4575L49.9307 40.8895H41.8147L42.4907 38.4575H50.6067ZM39.4014 49.5429L41.3467 42.5509H49.4613L48.7853 44.9815H44.436L43.1693 49.5429H39.4014ZM54.6947 42.3629C54.348 43.6389 54.0373 44.7282 53.6894 46.0135C53.6227 46.2402 53.4733 46.5682 53.52 46.7735C53.624 47.2629 55.24 47.0749 55.8213 47.0749H58.4147C58.208 47.8909 57.9747 48.6882 57.748 49.4882H51.5747C50.6733 49.4029 49.4987 49.0175 49.612 47.8535C49.6493 47.4882 49.82 47.0749 49.932 46.6709C50.487 44.6884 51.0381 42.7048 51.5853 40.7202C51.82 39.8562 52.008 39.1242 52.692 38.7775C53.136 38.5509 53.84 38.4869 54.3654 38.4575H60.5C60.2822 39.2664 60.06 40.0709 59.8333 40.8709H56.3093C55.8867 40.8709 55.4173 40.8229 55.1827 40.9829C54.9293 41.1709 54.7893 42.0162 54.6947 42.3629Z" fill="white"/>
</g>
<path d="M111.578 32.4531V46.5625C111.578 49.4531 113.281 51.3438 116.312 51.3438C119.328 51.3438 121.031 49.4531 121.031 46.5625V32.4531H125.75V47.0312C125.75 52 122.078 55.3906 116.312 55.3906C110.531 55.3906 106.859 52 106.859 47.0312V32.4531H111.578ZM134.234 55H129.516V32.4531H144.281V36.3438H134.234V42.3906H143.406V46.125H134.234V55ZM157.047 55.3906C150.484 55.3906 146.375 51 146.375 43.7188C146.375 36.4531 150.516 32.0625 157.047 32.0625C162.469 32.0625 166.594 35.5 166.953 40.5469H162.359C161.922 37.7812 159.797 35.9688 157.047 35.9688C153.484 35.9688 151.188 38.9531 151.188 43.7031C151.188 48.5156 153.453 51.4844 157.062 51.4844C159.859 51.4844 161.875 49.8438 162.375 47.1719H166.969C166.438 52.2031 162.578 55.3906 157.047 55.3906Z" fill="white"/>
<defs>
<linearGradient id="paint0_linear_2824_16198" x1="104.5" y1="0" x2="104.5" y2="88" gradientUnits="userSpaceOnUse">
<stop stop-color="#040B20"/>
<stop offset="1" stop-color="#030818"/>
</linearGradient>
<clipPath id="clip0_2824_16198">
<rect width="32" height="32" fill="white" transform="translate(28.5 28)"/>
</clipPath>
</defs>
</svg>
