<svg xmlns="http://www.w3.org/2000/svg" width="32" height="32" viewBox="0 0 32 32" fill="none">
  <path d="M17.5795 15.496C17.5795 16.6667 16.6417 17.6246 15.4954 17.6246C14.3492 17.6246 13.4113 16.6667 13.4113 15.496C13.4113 14.3253 14.3492 13.3675 15.4954 13.3675C16.6417 13.3675 17.5795 14.3253 17.5795 15.496ZM12.5464 10.2278C11.9316 9.59992 10.9417 9.59992 10.3373 10.2278C7.49252 13.1333 7.49252 17.8587 10.3373 20.7642C10.6395 21.0728 11.0459 21.2325 11.4419 21.2325C11.8379 21.2325 12.2443 21.0728 12.5464 20.7642C13.1613 20.1363 13.1613 19.1252 12.5464 18.5079C10.9209 16.8476 10.9209 14.1444 12.5464 12.4841C13.1613 11.8562 13.1613 10.8451 12.5464 10.2278ZM20.6536 10.2278C20.0388 9.59992 19.0488 9.59992 18.4444 10.2278C17.84 10.8558 17.8296 11.8668 18.4444 12.4841C19.2364 13.293 19.6636 14.3572 19.6636 15.496C19.6636 16.6348 19.226 17.6991 18.4444 18.5079C17.8296 19.1358 17.8296 20.1469 18.4444 20.7642C18.7466 21.0728 19.153 21.2325 19.549 21.2325C19.945 21.2325 20.3514 21.0728 20.6536 20.7642C22.0291 19.3593 22.7898 17.4862 22.7898 15.496C22.7898 13.5058 22.0291 11.6327 20.6536 10.2278ZM8.86803 8.72721C9.48283 8.09929 9.48283 7.08822 8.86803 6.47094C8.25322 5.84302 7.26327 5.84302 6.65889 6.47094C1.78211 11.4411 1.78211 19.5509 6.64847 24.5317C6.95066 24.8404 7.35706 25 7.75304 25C8.14901 25 8.55541 24.8404 8.85761 24.5317C9.47241 23.9038 9.47241 22.8927 8.85761 22.2755C5.20002 18.5398 5.20002 12.4628 8.85761 8.72721H8.86803ZM24.3424 6.47094C23.7276 5.84302 22.7377 5.84302 22.1333 6.47094C21.5185 7.09887 21.5185 8.10993 22.1333 8.72721C25.7909 12.4628 25.7909 18.5398 22.1333 22.2755C21.5185 22.9034 21.5185 23.9144 22.1333 24.5317C22.4355 24.8404 22.8419 25 23.2378 25C23.6338 25 24.0402 24.8404 24.3424 24.5317C29.2192 19.5509 29.2192 11.4518 24.3424 6.47094Z" fill="white"/>
</svg>